<svg width="24" height="24" viewBox="0 0 24 24" fill="none" xmlns="http://www.w3.org/2000/svg">
<path d="M21.4286 0H2.57143C1.15179 0 0 1.14876 0 2.56468V21.3723C0 22.7882 1.15179 23.937 2.57143 23.937H21.4286C22.8482 23.937 24 22.7882 24 21.3723V2.56468C24 1.14876 22.8482 0 21.4286 0ZM6.80357 18.8343C6.50893 19.3473 5.85 19.5183 5.34107 19.2244C4.82679 18.9305 4.65536 18.2733 4.95 17.7657L5.71607 16.446C6.57857 16.1842 7.28571 16.3872 7.8375 17.0551L6.80357 18.8343ZM14.2446 15.9544H4.5C3.91071 15.9544 3.42857 15.4735 3.42857 14.8858C3.42857 14.2981 3.91071 13.8172 4.5 13.8172H7.23214L10.7357 7.76883L9.6375 5.87738C9.34286 5.36445 9.51964 4.71259 10.0286 4.41872C10.5429 4.12485 11.1964 4.30118 11.4911 4.80877L11.9679 5.6316L12.4446 4.80877C12.7393 4.29583 13.3982 4.12485 13.9071 4.41872C14.4214 4.71259 14.5929 5.36979 14.2982 5.87738L9.70179 13.8172H13.0286C14.1107 13.8172 14.7161 15.0835 14.2446 15.9544ZM19.5 15.9544H17.9464L18.9964 17.7657C19.2911 18.2787 19.1143 18.9305 18.6054 19.2244C18.0911 19.5183 17.4375 19.3419 17.1429 18.8343C15.3804 15.7941 14.0625 13.5073 13.1786 11.9899C12.2839 10.4404 12.9214 8.89088 13.5589 8.36726C14.2607 9.58014 15.3107 11.3968 16.7143 13.8172H19.5C20.0893 13.8172 20.5714 14.2981 20.5714 14.8858C20.5714 15.4789 20.0893 15.9544 19.5 15.9544Z" fill="white"/>
</svg>
