<svg width="23" height="25" viewBox="0 0 23 25" fill="none" xmlns="http://www.w3.org/2000/svg">
<path fill-rule="evenodd" clip-rule="evenodd" d="M0.17222 0.81618C0.0612111 1.07363 0 1.38751 0 1.75157V23.2478C0 23.6127 0.0612719 23.9265 0.172385 24.1839L11.8553 12.4993L0.17222 0.81618ZM0.867852 24.9026C1.29956 25.081 1.85965 25.0197 2.46979 24.6737L16.2176 16.8615L12.5624 13.2064L0.867852 24.9026ZM17.12 16.3498L21.4243 13.9042C22.7822 13.1315 22.7822 11.8689 21.4243 11.0971L17.118 8.65016L13.2695 12.4992L17.12 16.3498ZM16.2162 8.13775L2.46979 0.326658C1.85965 -0.0200626 1.29957 -0.081007 0.867859 0.0976053L12.5624 11.7921L16.2162 8.13775Z" fill="#5FA7B4"/>
</svg>
