<svg width="29" height="29" viewBox="0 0 29 29" fill="none" xmlns="http://www.w3.org/2000/svg">
<circle cx="14.6446" cy="14.2149" r="14.2149" fill="white" fill-opacity="0.4"/>
<path d="M14.6472 10.1032C12.9655 10.1032 11.6091 11.5237 11.6091 13.2849C11.6091 15.046 12.9655 16.4665 14.6472 16.4665C16.3289 16.4665 17.6853 15.046 17.6853 13.2849C17.6853 11.5237 16.3289 10.1032 14.6472 10.1032ZM14.6472 15.3533C13.5605 15.3533 12.672 14.4257 12.672 13.2849C12.672 12.144 13.5578 11.2164 14.6472 11.2164C15.7366 11.2164 16.6224 12.144 16.6224 13.2849C16.6224 14.4257 15.7339 15.3533 14.6472 15.3533ZM18.5182 9.97305C18.5182 10.3856 18.2009 10.7152 17.8096 10.7152C17.4156 10.7152 17.1009 10.3829 17.1009 9.97305C17.1009 9.56323 17.4182 9.23095 17.8096 9.23095C18.2009 9.23095 18.5182 9.56323 18.5182 9.97305ZM20.5304 10.7262C20.4854 9.73215 20.2686 8.85158 19.5732 8.12609C18.8804 7.4006 18.0396 7.17353 17.0904 7.12369C16.112 7.06554 13.1797 7.06554 12.2014 7.12369C11.2548 7.17076 10.414 7.39783 9.71855 8.12332C9.02314 8.84882 8.80897 9.72938 8.76137 10.7235C8.70584 11.748 8.70584 14.8189 8.76137 15.8435C8.80632 16.8376 9.02314 17.7181 9.71855 18.4436C10.414 19.1691 11.2521 19.3962 12.2014 19.446C13.1797 19.5042 16.112 19.5042 17.0904 19.446C18.0396 19.3989 18.8804 19.1719 19.5732 18.4436C20.266 17.7181 20.4828 16.8376 20.5304 15.8435C20.5859 14.8189 20.5859 11.7508 20.5304 10.7262ZM19.2665 16.9428C19.0602 17.4855 18.661 17.9036 18.1401 18.1224C17.3601 18.4464 15.5092 18.3716 14.6472 18.3716C13.7852 18.3716 11.9317 18.4436 11.1543 18.1224C10.6361 17.9064 10.2368 17.4883 10.0279 16.9428C9.71855 16.1259 9.78994 14.1876 9.78994 13.2849C9.78994 12.3821 9.72119 10.441 10.0279 9.62692C10.2341 9.08419 10.6334 8.66606 11.1543 8.4473C11.9343 8.12332 13.7852 8.19809 14.6472 8.19809C15.5092 8.19809 17.3627 8.12609 18.1401 8.4473C18.6583 8.66329 19.0576 9.08142 19.2665 9.62692C19.5758 10.4438 19.5045 12.3821 19.5045 13.2849C19.5045 14.1876 19.5758 16.1287 19.2665 16.9428Z" fill="#4A919E"/>
</svg>
