<svg width="30" height="29" viewBox="0 0 30 29" fill="none" xmlns="http://www.w3.org/2000/svg">
<circle cx="14.9336" cy="14.2149" r="14.2149" fill="white" fill-opacity="0.4"/>
<path d="M20.0104 8.29199H9.83043C9.38092 8.29199 9.01074 8.68861 9.01074 9.16456V19.2916C9.01074 19.7676 9.38092 20.1377 9.83043 20.1377H20.0104C20.4599 20.1377 20.8565 19.7676 20.8565 19.2916V9.16456C20.8565 8.68861 20.4599 8.29199 20.0104 8.29199ZM12.5803 18.4455H10.8352V12.8135H12.5803V18.4455ZM11.7078 12.0202C11.1261 12.0202 10.6765 11.5707 10.6765 11.0155C10.6765 10.4602 11.1261 9.98424 11.7078 9.98424C12.263 9.98424 12.7125 10.4602 12.7125 11.0155C12.7125 11.5707 12.263 12.0202 11.7078 12.0202ZM19.1642 18.4455H17.3927V15.6956C17.3927 15.061 17.3927 14.2149 16.4937 14.2149C15.5682 14.2149 15.436 14.9288 15.436 15.6691V18.4455H13.6909V12.8135H15.3567V13.5803H15.3831C15.6211 13.1308 16.2028 12.6548 17.0489 12.6548C18.8205 12.6548 19.1642 13.8447 19.1642 15.3518V18.4455Z" fill="#4A919E"/>
</svg>
