<svg width="160" height="29" viewBox="0 0 160 29" fill="none" xmlns="http://www.w3.org/2000/svg">
<rect width="160" height="29" fill="#E5E5E5"/>
<g clip-path="url(#clip0_529_3822)">
<rect width="1441" height="3754" transform="translate(-420 -2752)" fill="#F9F9FA"/>
<rect width="160" height="29" fill="#55ACEE"/>
<path d="M75.1824 22V10.3834H71.5693V22H75.1824ZM73.3564 8.82939C74.522 8.82939 75.4544 7.85811 75.4544 6.69257C75.4544 5.56588 74.522 4.63345 73.3564 4.63345C72.2297 4.63345 71.2973 5.56588 71.2973 6.69257C71.2973 7.85811 72.2297 8.82939 73.3564 8.82939ZM88.6639 22H88.7027V15.6284C88.7027 12.5203 88.0034 10.1115 84.3514 10.1115C82.603 10.1115 81.4375 11.0828 80.9324 11.9764H80.8936V10.3834H77.4358V22H81.049V16.25C81.049 14.7348 81.3209 13.2973 83.1858 13.2973C85.0507 13.2973 85.0895 15.0068 85.0895 16.3666V22H88.6639Z" fill="white"/>
</g>
<defs>
<clipPath id="clip0_529_3822">
<rect width="1441" height="3754" fill="white" transform="translate(-420 -2752)"/>
</clipPath>
</defs>
</svg>
