<svg width="160" height="29" viewBox="0 0 160 29" fill="none" xmlns="http://www.w3.org/2000/svg">
<rect width="160" height="29" fill="#E5E5E5"/>
<g clip-path="url(#clip0_529_3822)">
<rect width="1441" height="3754" transform="translate(-580 -2752)" fill="#F9F9FA"/>
<rect width="160" height="29" fill="#4267B2"/>
<path d="M89.7777 4.00897C88.9265 4.61128 87.984 5.07195 86.9866 5.37324C86.4513 4.75576 85.7398 4.3181 84.9484 4.11947C84.157 3.92083 83.3239 3.9708 82.5618 4.26261C81.7996 4.55442 81.1452 5.07399 80.687 5.75105C80.2289 6.42812 79.989 7.23001 79.9999 8.04827V8.93995C78.4378 8.98058 76.89 8.63305 75.4942 7.92829C74.0984 7.22354 72.898 6.18345 71.9999 4.90065C71.9999 4.90065 68.4444 12.9258 76.4444 16.4925C74.6137 17.739 72.433 18.364 70.2222 18.2758C78.2222 22.7342 87.9999 18.2758 87.9999 8.02152C87.9991 7.77315 87.9753 7.52539 87.9288 7.28143C88.836 6.38395 89.4762 5.25082 89.7777 4.00897Z" fill="white"/>
</g>
<defs>
<clipPath id="clip0_529_3822">
<rect width="1441" height="3754" fill="white" transform="translate(-580 -2752)"/>
</clipPath>
</defs>
</svg>
