<svg width="17" height="15" viewBox="0 0 17 15" fill="none" xmlns="http://www.w3.org/2000/svg">
<path d="M8.03647 0.681559C8.11416 0.457383 8.4312 0.457382 8.5089 0.681558L10.1738 5.48537C10.2087 5.58601 10.3035 5.6535 10.41 5.6535H15.7617C16.0078 5.6535 16.1058 5.9716 15.9024 6.11012L11.6012 9.03984C11.5079 9.10341 11.4687 9.22164 11.5057 9.32833L13.1551 14.0873C13.2339 14.3148 12.9771 14.5114 12.7781 14.3758L8.41342 11.4029C8.32851 11.345 8.21686 11.345 8.13195 11.4029L3.76724 14.3758C3.56823 14.5114 3.31143 14.3148 3.39029 14.0873L5.03966 9.32833C5.07664 9.22164 5.03751 9.10341 4.94418 9.03984L0.642939 6.11012C0.439566 5.9716 0.537608 5.6535 0.783677 5.6535H6.13534C6.24186 5.6535 6.33668 5.58601 6.37156 5.48537L8.03647 0.681559Z" fill="#FBB040"/>
</svg>
