<svg width="114" height="114" viewBox="0 0 114 114" fill="none" xmlns="http://www.w3.org/2000/svg">
<path d="M57 0C25.5121 0 0 25.7419 0 57C0 88.4879 25.5121 114 57 114C88.2581 114 114 88.4879 114 57C114 25.7419 88.2581 0 57 0ZM57 106.645C29.6492 106.645 7.35484 84.5806 7.35484 57C7.35484 29.879 29.4194 7.35484 57 7.35484C84.121 7.35484 106.645 29.6492 106.645 57C106.645 84.3508 84.3508 106.645 57 106.645ZM89.4073 43.6694C90.5564 42.5202 90.5564 40.6815 89.4073 39.7621L87.5686 37.6935C86.4194 36.5444 84.5806 36.5444 83.6613 37.6935L45.9677 74.9274L30.1089 59.0685C29.1895 57.9194 27.3508 57.9194 26.2016 59.0685L24.3629 60.9073C23.2137 62.0564 23.2137 63.6653 24.3629 64.8145L44.129 84.8105C45.0484 85.7298 46.8871 85.7298 48.0363 84.8105L89.4073 43.6694Z" fill="#25C52B"/>
</svg>
