<svg width="29" height="29" viewBox="0 0 29 29" fill="none" xmlns="http://www.w3.org/2000/svg">
<circle cx="14.5039" cy="14.2149" r="14.2149" fill="white" fill-opacity="0.4"/>
<path d="M20.1648 11.232C20.7212 10.8039 21.2219 10.2901 21.6114 9.69065C21.1106 9.919 20.5265 10.0903 19.9423 10.1473C20.5543 9.77628 20.9994 9.2054 21.2219 8.4918C20.6656 8.83433 20.0258 9.09122 19.3859 9.23394C18.8296 8.63452 18.0785 8.29199 17.244 8.29199C15.6305 8.29199 14.3231 9.63356 14.3231 11.2891C14.3231 11.5175 14.3509 11.7458 14.4066 11.9742C11.9864 11.8314 9.81663 10.6326 8.37011 8.83433C8.11975 9.26249 7.98066 9.77628 7.98066 10.3472C7.98066 11.3747 8.48138 12.2881 9.28809 12.8305C8.81519 12.8019 8.34229 12.6878 7.95284 12.4594V12.488C7.95284 13.9437 8.95428 15.1425 10.2895 15.428C10.067 15.4851 9.78881 15.5422 9.53845 15.5422C9.34373 15.5422 9.17682 15.5136 8.9821 15.4851C9.34373 16.6839 10.4286 17.5402 11.7082 17.5688C10.7068 18.368 9.455 18.8533 8.09193 18.8533C7.84157 18.8533 7.61903 18.8247 7.39648 18.7962C8.6761 19.6525 10.2061 20.1377 11.8751 20.1377C17.244 20.1377 20.1648 15.5992 20.1648 11.6316C20.1648 11.4889 20.1648 11.3747 20.1648 11.232Z" fill="#4A919E"/>
</svg>
