<svg width="17" height="14" viewBox="0 0 17 14" fill="none" xmlns="http://www.w3.org/2000/svg">
<rect width="17" height="14" fill="#E5E5E5"/>
<g clip-path="url(#clip0_529_3822)">
<rect x="-221" y="-468" width="320" height="568" rx="20" fill="#F9F9FA"/>
<rect x="-221" y="-399" width="320" height="695" fill="#4A919E" fill-opacity="0.1"/>
<g clip-path="url(#clip1_529_3822)">
<rect x="-204" y="-181" width="286" height="454" rx="10" fill="white"/>
</g>
<rect x="-203.5" y="-180.5" width="285" height="453" rx="9.5" stroke="#CECECE"/>
<rect x="-221" y="-468" width="320" height="568" fill="black" fill-opacity="0.3"/>
<rect x="-130" y="-468" width="229" height="568" fill="#4A919E"/>
<path d="M14.5296 3.2654C15.1475 2.78986 15.7037 2.2192 16.1362 1.55344C15.5801 1.80707 14.9312 1.99728 14.2824 2.06069C14.9621 1.64855 15.4565 1.01449 15.7037 0.22192C15.0857 0.602356 14.3751 0.887682 13.6645 1.0462C13.0466 0.380435 12.2124 0 11.2855 0C9.49348 0 8.04135 1.49004 8.04135 3.32881C8.04135 3.58243 8.07224 3.83605 8.13404 4.08968C5.44605 3.93116 3.03613 2.59964 1.42952 0.602356C1.15145 1.0779 0.996969 1.64855 0.996969 2.28261C0.996969 3.42392 1.5531 4.43841 2.4491 5.04077C1.92386 5.00906 1.39862 4.88225 0.966072 4.62863V4.66033C0.966072 6.27718 2.07834 7.6087 3.56137 7.92573C3.3142 7.98914 3.00523 8.05254 2.72717 8.05254C2.51089 8.05254 2.32551 8.02084 2.10924 7.98914C2.51089 9.32066 3.71585 10.2717 5.13708 10.3035C4.02482 11.1911 2.63448 11.7301 1.12055 11.7301C0.842487 11.7301 0.595316 11.6984 0.348145 11.6667C1.76938 12.6178 3.46868 13.1567 5.32246 13.1567C11.2855 13.1567 14.5296 8.11595 14.5296 3.70924C14.5296 3.55073 14.5296 3.42392 14.5296 3.2654Z" fill="white"/>
</g>
<defs>
<clipPath id="clip0_529_3822">
<rect x="-221" y="-468" width="320" height="568" rx="20" fill="white"/>
</clipPath>
<clipPath id="clip1_529_3822">
<rect x="-204" y="-181" width="286" height="454" rx="10" fill="white"/>
</clipPath>
</defs>
</svg>
