<svg width="7" height="13" viewBox="0 0 7 13" fill="none" xmlns="http://www.w3.org/2000/svg">
<rect width="7" height="13" fill="#E5E5E5"/>
<g clip-path="url(#clip0_529_3822)">
<rect x="-108" y="-468" width="320" height="568" rx="20" fill="#F9F9FA"/>
<rect x="-108" y="-399" width="320" height="695" fill="#4A919E" fill-opacity="0.1"/>
<g clip-path="url(#clip1_529_3822)">
<rect x="-91" y="-181" width="286" height="454" rx="10" fill="white"/>
<path d="M-7.35689 5.896H-5.96289V16.81H0.106114V18H-7.35689V5.896ZM4.72471 18.119C3.92004 18.119 3.21171 17.9377 2.59971 17.575C1.98771 17.2123 1.51171 16.6967 1.17171 16.028C0.843043 15.3593 0.67871 14.5773 0.67871 13.682C0.67871 12.7867 0.843043 12.0047 1.17171 11.336C1.51171 10.6673 1.98771 10.1517 2.59971 9.789C3.21171 9.42633 3.92004 9.245 4.72471 9.245C5.52938 9.245 6.23771 9.42633 6.84971 9.789C7.46171 10.1517 7.93204 10.6673 8.26071 11.336C8.60071 12.0047 8.77071 12.7867 8.77071 13.682C8.77071 14.5773 8.60071 15.3593 8.26071 16.028C7.93204 16.6967 7.46171 17.2123 6.84971 17.575C6.23771 17.9377 5.52938 18.119 4.72471 18.119ZM4.72471 16.98C5.57471 16.98 6.22638 16.7023 6.67971 16.147C7.13304 15.5803 7.35971 14.7587 7.35971 13.682C7.35971 12.6393 7.12738 11.8347 6.66271 11.268C6.19804 10.69 5.55204 10.401 4.72471 10.401C3.88604 10.401 3.23438 10.69 2.76971 11.268C2.30504 11.8347 2.07271 12.6393 2.07271 13.682C2.07271 14.7587 2.29938 15.5803 2.75271 16.147C3.21738 16.7023 3.87471 16.98 4.72471 16.98ZM14.3638 9.245C14.6471 9.245 14.9078 9.279 15.1458 9.347L15.1118 10.605C14.8511 10.5143 14.5508 10.469 14.2108 10.469C13.3834 10.469 12.7658 10.7297 12.3578 11.251C11.9611 11.761 11.7628 12.3843 11.7628 13.121V18H10.3858V11.846C10.3858 10.962 10.3404 10.163 10.2498 9.449H11.5588L11.6948 11.03C11.9101 10.452 12.2558 10.01 12.7318 9.704C13.2078 9.398 13.7518 9.245 14.3638 9.245ZM23.0044 13.682H16.7314C16.7428 14.77 16.9921 15.5917 17.4794 16.147C17.9781 16.7023 18.6978 16.98 19.6384 16.98C20.6358 16.98 21.5538 16.6457 22.3924 15.977L22.8514 16.98C22.4774 17.3313 21.9958 17.609 21.4064 17.813C20.8284 18.017 20.2334 18.119 19.6214 18.119C18.2841 18.119 17.2358 17.728 16.4764 16.946C15.7171 16.1527 15.3374 15.0703 15.3374 13.699C15.3374 12.8263 15.5074 12.0557 15.8474 11.387C16.1874 10.707 16.6634 10.18 17.2754 9.806C17.8874 9.432 18.5844 9.245 19.3664 9.245C20.4998 9.245 21.3894 9.619 22.0354 10.367C22.6814 11.1037 23.0044 12.1237 23.0044 13.427V13.682ZM19.3834 10.316C18.6694 10.316 18.0858 10.5313 17.6324 10.962C17.1904 11.3927 16.9071 11.999 16.7824 12.781H21.7634C21.6954 11.9763 21.4574 11.3643 21.0494 10.945C20.6528 10.5257 20.0974 10.316 19.3834 10.316ZM34.049 9.245C35.9417 9.245 36.888 10.3727 36.888 12.628V18H35.511V12.696C35.511 11.8913 35.3694 11.3077 35.086 10.945C34.814 10.5823 34.3664 10.401 33.743 10.401C33.0177 10.401 32.451 10.6447 32.043 11.132C31.635 11.6193 31.431 12.2823 31.431 13.121V18H30.054V12.696C30.054 11.9027 29.9124 11.3247 29.629 10.962C29.3457 10.588 28.8924 10.401 28.269 10.401C27.5437 10.401 26.9714 10.6447 26.552 11.132C26.144 11.6193 25.94 12.2823 25.94 13.121V18H24.563V11.846C24.563 10.962 24.5177 10.163 24.427 9.449H25.736L25.872 10.945C26.11 10.401 26.4614 9.98167 26.926 9.687C27.402 9.39233 27.9517 9.245 28.575 9.245C29.255 9.245 29.8104 9.381 30.241 9.653C30.6717 9.925 30.989 10.3443 31.193 10.911C31.4537 10.401 31.8334 9.99867 32.332 9.704C32.842 9.398 33.4144 9.245 34.049 9.245ZM42.8741 9.449H44.2511V18H42.8741V9.449ZM44.4211 5.828V7.392H42.7381V5.828H44.4211ZM50.6604 9.245C51.4084 9.245 52.0714 9.432 52.6494 9.806C53.2274 10.18 53.6751 10.707 53.9924 11.387C54.3098 12.0557 54.4684 12.832 54.4684 13.716C54.4684 14.6 54.3098 15.3763 53.9924 16.045C53.6751 16.7023 53.2274 17.2123 52.6494 17.575C52.0828 17.9377 51.4198 18.119 50.6604 18.119C49.9918 18.119 49.4081 17.9717 48.9094 17.677C48.4108 17.3823 48.0311 16.963 47.7704 16.419V21.672H46.3934V11.846C46.3934 10.962 46.3481 10.163 46.2574 9.449H47.5664L47.7024 11.098C47.9404 10.5087 48.3144 10.0553 48.8244 9.738C49.3458 9.40933 49.9578 9.245 50.6604 9.245ZM50.4054 16.98C51.2441 16.98 51.8901 16.6967 52.3434 16.13C52.8081 15.5633 53.0404 14.7587 53.0404 13.716C53.0404 12.6733 52.8081 11.863 52.3434 11.285C51.8788 10.6957 51.2328 10.401 50.4054 10.401C49.5554 10.401 48.9038 10.6843 48.4504 11.251C47.9971 11.8177 47.7704 12.628 47.7704 13.682C47.7704 14.736 47.9971 15.552 48.4504 16.13C48.9038 16.6967 49.5554 16.98 50.4054 16.98ZM58.9453 18.119C57.506 18.119 56.367 17.7507 55.5283 17.014L55.9873 15.994C56.452 16.3567 56.9223 16.6173 57.3983 16.776C57.8743 16.9347 58.407 17.014 58.9963 17.014C59.6423 17.014 60.1296 16.9063 60.4583 16.691C60.7983 16.4643 60.9683 16.1413 60.9683 15.722C60.9683 15.382 60.855 15.11 60.6283 14.906C60.4016 14.702 60.0276 14.5433 59.5063 14.43L58.0613 14.09C57.3473 13.9313 56.792 13.648 56.3953 13.24C56.01 12.832 55.8173 12.3447 55.8173 11.778C55.8173 11.03 56.1176 10.4237 56.7183 9.959C57.319 9.483 58.1123 9.245 59.0983 9.245C59.699 9.245 60.2656 9.34133 60.7983 9.534C61.331 9.72667 61.7786 10.0043 62.1413 10.367L61.6823 11.37C60.8776 10.7013 60.0163 10.367 59.0983 10.367C58.4863 10.367 58.0103 10.486 57.6703 10.724C57.3416 10.9507 57.1773 11.2737 57.1773 11.693C57.1773 12.0443 57.2793 12.322 57.4833 12.526C57.6986 12.73 58.0386 12.8887 58.5033 13.002L59.9483 13.359C60.7416 13.5403 61.331 13.8237 61.7163 14.209C62.1016 14.583 62.2943 15.076 62.2943 15.688C62.2943 16.4247 61.994 17.014 61.3933 17.456C60.7926 17.898 59.9766 18.119 58.9453 18.119ZM71.1144 9.449V18H69.7714V16.521C69.4994 17.0423 69.1198 17.439 68.6324 17.711C68.1451 17.983 67.5954 18.119 66.9834 18.119C65.9748 18.119 65.2098 17.8357 64.6884 17.269C64.1671 16.7023 63.9064 15.8637 63.9064 14.753V9.449H65.2834V14.719C65.2834 15.4897 65.4421 16.0563 65.7594 16.419C66.0768 16.7817 66.5584 16.963 67.2044 16.963C67.9638 16.963 68.5758 16.7193 69.0404 16.232C69.5051 15.7333 69.7374 15.0817 69.7374 14.277V9.449H71.1144ZM82.7235 9.245C84.6162 9.245 85.5625 10.3727 85.5625 12.628V18H84.1855V12.696C84.1855 11.8913 84.0438 11.3077 83.7605 10.945C83.4885 10.5823 83.0408 10.401 82.4175 10.401C81.6922 10.401 81.1255 10.6447 80.7175 11.132C80.3095 11.6193 80.1055 12.2823 80.1055 13.121V18H78.7285V12.696C78.7285 11.9027 78.5868 11.3247 78.3035 10.962C78.0202 10.588 77.5668 10.401 76.9435 10.401C76.2182 10.401 75.6458 10.6447 75.2265 11.132C74.8185 11.6193 74.6145 12.2823 74.6145 13.121V18H73.2375V11.846C73.2375 10.962 73.1922 10.163 73.1015 9.449H74.4105L74.5465 10.945C74.7845 10.401 75.1358 9.98167 75.6005 9.687C76.0765 9.39233 76.6262 9.245 77.2495 9.245C77.9295 9.245 78.4848 9.381 78.9155 9.653C79.3462 9.925 79.6635 10.3443 79.8675 10.911C80.1282 10.401 80.5078 9.99867 81.0065 9.704C81.5165 9.398 82.0888 9.245 82.7235 9.245ZM-7.35689 55.896H-5.96289V66.81H0.106114V68H-7.35689V55.896ZM4.72471 68.119C3.92004 68.119 3.21171 67.9377 2.59971 67.575C1.98771 67.2123 1.51171 66.6967 1.17171 66.028C0.843043 65.3593 0.67871 64.5773 0.67871 63.682C0.67871 62.7867 0.843043 62.0047 1.17171 61.336C1.51171 60.6673 1.98771 60.1517 2.59971 59.789C3.21171 59.4263 3.92004 59.245 4.72471 59.245C5.52938 59.245 6.23771 59.4263 6.84971 59.789C7.46171 60.1517 7.93204 60.6673 8.26071 61.336C8.60071 62.0047 8.77071 62.7867 8.77071 63.682C8.77071 64.5773 8.60071 65.3593 8.26071 66.028C7.93204 66.6967 7.46171 67.2123 6.84971 67.575C6.23771 67.9377 5.52938 68.119 4.72471 68.119ZM4.72471 66.98C5.57471 66.98 6.22638 66.7023 6.67971 66.147C7.13304 65.5803 7.35971 64.7587 7.35971 63.682C7.35971 62.6393 7.12738 61.8347 6.66271 61.268C6.19804 60.69 5.55204 60.401 4.72471 60.401C3.88604 60.401 3.23438 60.69 2.76971 61.268C2.30504 61.8347 2.07271 62.6393 2.07271 63.682C2.07271 64.7587 2.29938 65.5803 2.75271 66.147C3.21738 66.7023 3.87471 66.98 4.72471 66.98ZM14.3638 59.245C14.6471 59.245 14.9078 59.279 15.1458 59.347L15.1118 60.605C14.8511 60.5143 14.5508 60.469 14.2108 60.469C13.3834 60.469 12.7658 60.7297 12.3578 61.251C11.9611 61.761 11.7628 62.3843 11.7628 63.121V68H10.3858V61.846C10.3858 60.962 10.3404 60.163 10.2498 59.449H11.5588L11.6948 61.03C11.9101 60.452 12.2558 60.01 12.7318 59.704C13.2078 59.398 13.7518 59.245 14.3638 59.245ZM23.0044 63.682H16.7314C16.7428 64.77 16.9921 65.5917 17.4794 66.147C17.9781 66.7023 18.6978 66.98 19.6384 66.98C20.6358 66.98 21.5538 66.6457 22.3924 65.977L22.8514 66.98C22.4774 67.3313 21.9958 67.609 21.4064 67.813C20.8284 68.017 20.2334 68.119 19.6214 68.119C18.2841 68.119 17.2358 67.728 16.4764 66.946C15.7171 66.1527 15.3374 65.0703 15.3374 63.699C15.3374 62.8263 15.5074 62.0557 15.8474 61.387C16.1874 60.707 16.6634 60.18 17.2754 59.806C17.8874 59.432 18.5844 59.245 19.3664 59.245C20.4998 59.245 21.3894 59.619 22.0354 60.367C22.6814 61.1037 23.0044 62.1237 23.0044 63.427V63.682ZM19.3834 60.316C18.6694 60.316 18.0858 60.5313 17.6324 60.962C17.1904 61.3927 16.9071 61.999 16.7824 62.781H21.7634C21.6954 61.9763 21.4574 61.3643 21.0494 60.945C20.6528 60.5257 20.0974 60.316 19.3834 60.316ZM34.049 59.245C35.9417 59.245 36.888 60.3727 36.888 62.628V68H35.511V62.696C35.511 61.8913 35.3694 61.3077 35.086 60.945C34.814 60.5823 34.3664 60.401 33.743 60.401C33.0177 60.401 32.451 60.6447 32.043 61.132C31.635 61.6193 31.431 62.2823 31.431 63.121V68H30.054V62.696C30.054 61.9027 29.9124 61.3247 29.629 60.962C29.3457 60.588 28.8924 60.401 28.269 60.401C27.5437 60.401 26.9714 60.6447 26.552 61.132C26.144 61.6193 25.94 62.2823 25.94 63.121V68H24.563V61.846C24.563 60.962 24.5177 60.163 24.427 59.449H25.736L25.872 60.945C26.11 60.401 26.4614 59.9817 26.926 59.687C27.402 59.3923 27.9517 59.245 28.575 59.245C29.255 59.245 29.8104 59.381 30.241 59.653C30.6717 59.925 30.989 60.3443 31.193 60.911C31.4537 60.401 31.8334 59.9987 32.332 59.704C32.842 59.398 33.4144 59.245 34.049 59.245ZM42.8741 59.449H44.2511V68H42.8741V59.449ZM44.4211 55.828V57.392H42.7381V55.828H44.4211ZM50.6604 59.245C51.4084 59.245 52.0714 59.432 52.6494 59.806C53.2274 60.18 53.6751 60.707 53.9924 61.387C54.3098 62.0557 54.4684 62.832 54.4684 63.716C54.4684 64.6 54.3098 65.3763 53.9924 66.045C53.6751 66.7023 53.2274 67.2123 52.6494 67.575C52.0828 67.9377 51.4198 68.119 50.6604 68.119C49.9918 68.119 49.4081 67.9717 48.9094 67.677C48.4108 67.3823 48.0311 66.963 47.7704 66.419V71.672H46.3934V61.846C46.3934 60.962 46.3481 60.163 46.2574 59.449H47.5664L47.7024 61.098C47.9404 60.5087 48.3144 60.0553 48.8244 59.738C49.3458 59.4093 49.9578 59.245 50.6604 59.245ZM50.4054 66.98C51.2441 66.98 51.8901 66.6967 52.3434 66.13C52.8081 65.5633 53.0404 64.7587 53.0404 63.716C53.0404 62.6733 52.8081 61.863 52.3434 61.285C51.8788 60.6957 51.2328 60.401 50.4054 60.401C49.5554 60.401 48.9038 60.6843 48.4504 61.251C47.9971 61.8177 47.7704 62.628 47.7704 63.682C47.7704 64.736 47.9971 65.552 48.4504 66.13C48.9038 66.6967 49.5554 66.98 50.4054 66.98ZM58.9453 68.119C57.506 68.119 56.367 67.7507 55.5283 67.014L55.9873 65.994C56.452 66.3567 56.9223 66.6173 57.3983 66.776C57.8743 66.9347 58.407 67.014 58.9963 67.014C59.6423 67.014 60.1296 66.9063 60.4583 66.691C60.7983 66.4643 60.9683 66.1413 60.9683 65.722C60.9683 65.382 60.855 65.11 60.6283 64.906C60.4016 64.702 60.0276 64.5433 59.5063 64.43L58.0613 64.09C57.3473 63.9313 56.792 63.648 56.3953 63.24C56.01 62.832 55.8173 62.3447 55.8173 61.778C55.8173 61.03 56.1176 60.4237 56.7183 59.959C57.319 59.483 58.1123 59.245 59.0983 59.245C59.699 59.245 60.2656 59.3413 60.7983 59.534C61.331 59.7267 61.7786 60.0043 62.1413 60.367L61.6823 61.37C60.8776 60.7013 60.0163 60.367 59.0983 60.367C58.4863 60.367 58.0103 60.486 57.6703 60.724C57.3416 60.9507 57.1773 61.2737 57.1773 61.693C57.1773 62.0443 57.2793 62.322 57.4833 62.526C57.6986 62.73 58.0386 62.8887 58.5033 63.002L59.9483 63.359C60.7416 63.5403 61.331 63.8237 61.7163 64.209C62.1016 64.583 62.2943 65.076 62.2943 65.688C62.2943 66.4247 61.994 67.014 61.3933 67.456C60.7926 67.898 59.9766 68.119 58.9453 68.119ZM71.1144 59.449V68H69.7714V66.521C69.4994 67.0423 69.1198 67.439 68.6324 67.711C68.1451 67.983 67.5954 68.119 66.9834 68.119C65.9748 68.119 65.2098 67.8357 64.6884 67.269C64.1671 66.7023 63.9064 65.8637 63.9064 64.753V59.449H65.2834V64.719C65.2834 65.4897 65.4421 66.0563 65.7594 66.419C66.0768 66.7817 66.5584 66.963 67.2044 66.963C67.9638 66.963 68.5758 66.7193 69.0404 66.232C69.5051 65.7333 69.7374 65.0817 69.7374 64.277V59.449H71.1144ZM82.7235 59.245C84.6162 59.245 85.5625 60.3727 85.5625 62.628V68H84.1855V62.696C84.1855 61.8913 84.0438 61.3077 83.7605 60.945C83.4885 60.5823 83.0408 60.401 82.4175 60.401C81.6922 60.401 81.1255 60.6447 80.7175 61.132C80.3095 61.6193 80.1055 62.2823 80.1055 63.121V68H78.7285V62.696C78.7285 61.9027 78.5868 61.3247 78.3035 60.962C78.0202 60.588 77.5668 60.401 76.9435 60.401C76.2182 60.401 75.6458 60.6447 75.2265 61.132C74.8185 61.6193 74.6145 62.2823 74.6145 63.121V68H73.2375V61.846C73.2375 60.962 73.1922 60.163 73.1015 59.449H74.4105L74.5465 60.945C74.7845 60.401 75.1358 59.9817 75.6005 59.687C76.0765 59.3923 76.6262 59.245 77.2495 59.245C77.9295 59.245 78.4848 59.381 78.9155 59.653C79.3462 59.925 79.6635 60.3443 79.8675 60.911C80.1282 60.401 80.5078 59.9987 81.0065 59.704C81.5165 59.398 82.0888 59.245 82.7235 59.245ZM-7.35689 105.896H-5.96289V116.81H0.106114V118H-7.35689V105.896ZM4.72471 118.119C3.92004 118.119 3.21171 117.938 2.59971 117.575C1.98771 117.212 1.51171 116.697 1.17171 116.028C0.843043 115.359 0.67871 114.577 0.67871 113.682C0.67871 112.787 0.843043 112.005 1.17171 111.336C1.51171 110.667 1.98771 110.152 2.59971 109.789C3.21171 109.426 3.92004 109.245 4.72471 109.245C5.52938 109.245 6.23771 109.426 6.84971 109.789C7.46171 110.152 7.93204 110.667 8.26071 111.336C8.60071 112.005 8.77071 112.787 8.77071 113.682C8.77071 114.577 8.60071 115.359 8.26071 116.028C7.93204 116.697 7.46171 117.212 6.84971 117.575C6.23771 117.938 5.52938 118.119 4.72471 118.119ZM4.72471 116.98C5.57471 116.98 6.22638 116.702 6.67971 116.147C7.13304 115.58 7.35971 114.759 7.35971 113.682C7.35971 112.639 7.12738 111.835 6.66271 111.268C6.19804 110.69 5.55204 110.401 4.72471 110.401C3.88604 110.401 3.23438 110.69 2.76971 111.268C2.30504 111.835 2.07271 112.639 2.07271 113.682C2.07271 114.759 2.29938 115.58 2.75271 116.147C3.21738 116.702 3.87471 116.98 4.72471 116.98ZM14.3638 109.245C14.6471 109.245 14.9078 109.279 15.1458 109.347L15.1118 110.605C14.8511 110.514 14.5508 110.469 14.2108 110.469C13.3834 110.469 12.7658 110.73 12.3578 111.251C11.9611 111.761 11.7628 112.384 11.7628 113.121V118H10.3858V111.846C10.3858 110.962 10.3404 110.163 10.2498 109.449H11.5588L11.6948 111.03C11.9101 110.452 12.2558 110.01 12.7318 109.704C13.2078 109.398 13.7518 109.245 14.3638 109.245ZM23.0044 113.682H16.7314C16.7428 114.77 16.9921 115.592 17.4794 116.147C17.9781 116.702 18.6978 116.98 19.6384 116.98C20.6358 116.98 21.5538 116.646 22.3924 115.977L22.8514 116.98C22.4774 117.331 21.9958 117.609 21.4064 117.813C20.8284 118.017 20.2334 118.119 19.6214 118.119C18.2841 118.119 17.2358 117.728 16.4764 116.946C15.7171 116.153 15.3374 115.07 15.3374 113.699C15.3374 112.826 15.5074 112.056 15.8474 111.387C16.1874 110.707 16.6634 110.18 17.2754 109.806C17.8874 109.432 18.5844 109.245 19.3664 109.245C20.4998 109.245 21.3894 109.619 22.0354 110.367C22.6814 111.104 23.0044 112.124 23.0044 113.427V113.682ZM19.3834 110.316C18.6694 110.316 18.0858 110.531 17.6324 110.962C17.1904 111.393 16.9071 111.999 16.7824 112.781H21.7634C21.6954 111.976 21.4574 111.364 21.0494 110.945C20.6528 110.526 20.0974 110.316 19.3834 110.316ZM34.049 109.245C35.9417 109.245 36.888 110.373 36.888 112.628V118H35.511V112.696C35.511 111.891 35.3694 111.308 35.086 110.945C34.814 110.582 34.3664 110.401 33.743 110.401C33.0177 110.401 32.451 110.645 32.043 111.132C31.635 111.619 31.431 112.282 31.431 113.121V118H30.054V112.696C30.054 111.903 29.9124 111.325 29.629 110.962C29.3457 110.588 28.8924 110.401 28.269 110.401C27.5437 110.401 26.9714 110.645 26.552 111.132C26.144 111.619 25.94 112.282 25.94 113.121V118H24.563V111.846C24.563 110.962 24.5177 110.163 24.427 109.449H25.736L25.872 110.945C26.11 110.401 26.4614 109.982 26.926 109.687C27.402 109.392 27.9517 109.245 28.575 109.245C29.255 109.245 29.8104 109.381 30.241 109.653C30.6717 109.925 30.989 110.344 31.193 110.911C31.4537 110.401 31.8334 109.999 32.332 109.704C32.842 109.398 33.4144 109.245 34.049 109.245ZM42.8741 109.449H44.2511V118H42.8741V109.449ZM44.4211 105.828V107.392H42.7381V105.828H44.4211ZM50.6604 109.245C51.4084 109.245 52.0714 109.432 52.6494 109.806C53.2274 110.18 53.6751 110.707 53.9924 111.387C54.3098 112.056 54.4684 112.832 54.4684 113.716C54.4684 114.6 54.3098 115.376 53.9924 116.045C53.6751 116.702 53.2274 117.212 52.6494 117.575C52.0828 117.938 51.4198 118.119 50.6604 118.119C49.9918 118.119 49.4081 117.972 48.9094 117.677C48.4108 117.382 48.0311 116.963 47.7704 116.419V121.672H46.3934V111.846C46.3934 110.962 46.3481 110.163 46.2574 109.449H47.5664L47.7024 111.098C47.9404 110.509 48.3144 110.055 48.8244 109.738C49.3458 109.409 49.9578 109.245 50.6604 109.245ZM50.4054 116.98C51.2441 116.98 51.8901 116.697 52.3434 116.13C52.8081 115.563 53.0404 114.759 53.0404 113.716C53.0404 112.673 52.8081 111.863 52.3434 111.285C51.8788 110.696 51.2328 110.401 50.4054 110.401C49.5554 110.401 48.9038 110.684 48.4504 111.251C47.9971 111.818 47.7704 112.628 47.7704 113.682C47.7704 114.736 47.9971 115.552 48.4504 116.13C48.9038 116.697 49.5554 116.98 50.4054 116.98ZM58.9453 118.119C57.506 118.119 56.367 117.751 55.5283 117.014L55.9873 115.994C56.452 116.357 56.9223 116.617 57.3983 116.776C57.8743 116.935 58.407 117.014 58.9963 117.014C59.6423 117.014 60.1296 116.906 60.4583 116.691C60.7983 116.464 60.9683 116.141 60.9683 115.722C60.9683 115.382 60.855 115.11 60.6283 114.906C60.4016 114.702 60.0276 114.543 59.5063 114.43L58.0613 114.09C57.3473 113.931 56.792 113.648 56.3953 113.24C56.01 112.832 55.8173 112.345 55.8173 111.778C55.8173 111.03 56.1176 110.424 56.7183 109.959C57.319 109.483 58.1123 109.245 59.0983 109.245C59.699 109.245 60.2656 109.341 60.7983 109.534C61.331 109.727 61.7786 110.004 62.1413 110.367L61.6823 111.37C60.8776 110.701 60.0163 110.367 59.0983 110.367C58.4863 110.367 58.0103 110.486 57.6703 110.724C57.3416 110.951 57.1773 111.274 57.1773 111.693C57.1773 112.044 57.2793 112.322 57.4833 112.526C57.6986 112.73 58.0386 112.889 58.5033 113.002L59.9483 113.359C60.7416 113.54 61.331 113.824 61.7163 114.209C62.1016 114.583 62.2943 115.076 62.2943 115.688C62.2943 116.425 61.994 117.014 61.3933 117.456C60.7926 117.898 59.9766 118.119 58.9453 118.119ZM71.1144 109.449V118H69.7714V116.521C69.4994 117.042 69.1198 117.439 68.6324 117.711C68.1451 117.983 67.5954 118.119 66.9834 118.119C65.9748 118.119 65.2098 117.836 64.6884 117.269C64.1671 116.702 63.9064 115.864 63.9064 114.753V109.449H65.2834V114.719C65.2834 115.49 65.4421 116.056 65.7594 116.419C66.0768 116.782 66.5584 116.963 67.2044 116.963C67.9638 116.963 68.5758 116.719 69.0404 116.232C69.5051 115.733 69.7374 115.082 69.7374 114.277V109.449H71.1144ZM82.7235 109.245C84.6162 109.245 85.5625 110.373 85.5625 112.628V118H84.1855V112.696C84.1855 111.891 84.0438 111.308 83.7605 110.945C83.4885 110.582 83.0408 110.401 82.4175 110.401C81.6922 110.401 81.1255 110.645 80.7175 111.132C80.3095 111.619 80.1055 112.282 80.1055 113.121V118H78.7285V112.696C78.7285 111.903 78.5868 111.325 78.3035 110.962C78.0202 110.588 77.5668 110.401 76.9435 110.401C76.2182 110.401 75.6458 110.645 75.2265 111.132C74.8185 111.619 74.6145 112.282 74.6145 113.121V118H73.2375V111.846C73.2375 110.962 73.1922 110.163 73.1015 109.449H74.4105L74.5465 110.945C74.7845 110.401 75.1358 109.982 75.6005 109.687C76.0765 109.392 76.6262 109.245 77.2495 109.245C77.9295 109.245 78.4848 109.381 78.9155 109.653C79.3462 109.925 79.6635 110.344 79.8675 110.911C80.1282 110.401 80.5078 109.999 81.0065 109.704C81.5165 109.398 82.0888 109.245 82.7235 109.245Z" fill="#696871"/>
</g>
<rect x="-90.5" y="-180.5" width="285" height="453" rx="9.5" stroke="#CECECE"/>
<rect x="-108" y="-468" width="320" height="568" fill="black" fill-opacity="0.3"/>
<rect x="-17" y="-468" width="229" height="568" fill="#4A919E"/>
<path d="M6.32133 7.30976L6.67212 4.95795H4.47883V3.43178C4.47883 2.78837 4.78522 2.1612 5.76752 2.1612H6.76462V0.158886C6.76462 0.158886 5.85978 0 4.99465 0C3.18842 0 2.00778 1.12641 2.00778 3.16553V4.95795H0V7.30976H2.00778V12.9951H4.47883V7.30976H6.32133Z" fill="white"/>
</g>
<defs>
<clipPath id="clip0_529_3822">
<rect x="-108" y="-468" width="320" height="568" rx="20" fill="white"/>
</clipPath>
<clipPath id="clip1_529_3822">
<rect x="-91" y="-181" width="286" height="454" rx="10" fill="white"/>
</clipPath>
</defs>
</svg>
