<svg width="14" height="14" viewBox="0 0 14 14" fill="none" xmlns="http://www.w3.org/2000/svg">
<rect width="14" height="14" fill="#E5E5E5"/>
<g clip-path="url(#clip0_529_3822)">
<rect x="-262" y="-468" width="320" height="568" rx="20" fill="#F9F9FA"/>
<rect x="-262" y="-399" width="320" height="695" fill="#4A919E" fill-opacity="0.1"/>
<g clip-path="url(#clip1_529_3822)">
<rect x="-245" y="-181" width="286" height="454" rx="10" fill="white"/>
</g>
<rect x="-244.5" y="-180.5" width="285" height="453" rx="9.5" stroke="#CECECE"/>
<rect x="-262" y="-468" width="320" height="568" fill="black" fill-opacity="0.3"/>
<rect x="-171" y="-468" width="229" height="568" fill="#4A919E"/>
<path d="M12.3532 0H1.04663C0.547378 0 0.13623 0.440515 0.13623 0.969133V12.2169C0.13623 12.7456 0.547378 13.1567 1.04663 13.1567H12.3532C12.8524 13.1567 13.2929 12.7456 13.2929 12.2169V0.969133C13.2929 0.440515 12.8524 0 12.3532 0ZM4.10087 11.2772H2.1626V5.02187H4.10087V11.2772ZM3.13173 4.14084C2.48564 4.14084 1.98639 3.64159 1.98639 3.02487C1.98639 2.40815 2.48564 1.87953 3.13173 1.87953C3.74845 1.87953 4.2477 2.40815 4.2477 3.02487C4.2477 3.64159 3.74845 4.14084 3.13173 4.14084ZM11.4134 11.2772H9.44578V8.22295C9.44578 7.51812 9.44578 6.57836 8.44728 6.57836C7.41941 6.57836 7.27257 7.37128 7.27257 8.19358V11.2772H5.33431V5.02187H7.18447V5.87353H7.21384C7.47815 5.37428 8.12424 4.84566 9.064 4.84566C11.0316 4.84566 11.4134 6.16721 11.4134 7.84117V11.2772Z" fill="white"/>
</g>
<defs>
<clipPath id="clip0_529_3822">
<rect x="-262" y="-468" width="320" height="568" rx="20" fill="white"/>
</clipPath>
<clipPath id="clip1_529_3822">
<rect x="-245" y="-181" width="286" height="454" rx="10" fill="white"/>
</clipPath>
</defs>
</svg>
