<svg width="14" height="14" viewBox="0 0 14 14" fill="none" xmlns="http://www.w3.org/2000/svg">
<rect width="14" height="14" fill="#E5E5E5"/>
<g clip-path="url(#clip0_529_3822)">
<rect x="-139" y="-468" width="320" height="568" rx="20" fill="#F9F9FA"/>
<rect x="-139" y="-399" width="320" height="695" fill="#4A919E" fill-opacity="0.1"/>
<g clip-path="url(#clip1_529_3822)">
<rect x="-122" y="-181" width="286" height="454" rx="10" fill="white"/>
<path d="M-38.3569 5.896H-36.9629V16.81H-30.8939V18H-38.3569V5.896ZM-26.2753 18.119C-27.08 18.119 -27.7883 17.9377 -28.4003 17.575C-29.0123 17.2123 -29.4883 16.6967 -29.8283 16.028C-30.157 15.3593 -30.3213 14.5773 -30.3213 13.682C-30.3213 12.7867 -30.157 12.0047 -29.8283 11.336C-29.4883 10.6673 -29.0123 10.1517 -28.4003 9.789C-27.7883 9.42633 -27.08 9.245 -26.2753 9.245C-25.4706 9.245 -24.7623 9.42633 -24.1503 9.789C-23.5383 10.1517 -23.068 10.6673 -22.7393 11.336C-22.3993 12.0047 -22.2293 12.7867 -22.2293 13.682C-22.2293 14.5773 -22.3993 15.3593 -22.7393 16.028C-23.068 16.6967 -23.5383 17.2123 -24.1503 17.575C-24.7623 17.9377 -25.4706 18.119 -26.2753 18.119ZM-26.2753 16.98C-25.4253 16.98 -24.7736 16.7023 -24.3203 16.147C-23.867 15.5803 -23.6403 14.7587 -23.6403 13.682C-23.6403 12.6393 -23.8726 11.8347 -24.3373 11.268C-24.802 10.69 -25.448 10.401 -26.2753 10.401C-27.114 10.401 -27.7656 10.69 -28.2303 11.268C-28.695 11.8347 -28.9273 12.6393 -28.9273 13.682C-28.9273 14.7587 -28.7006 15.5803 -28.2473 16.147C-27.7826 16.7023 -27.1253 16.98 -26.2753 16.98ZM-16.6362 9.245C-16.3529 9.245 -16.0922 9.279 -15.8542 9.347L-15.8882 10.605C-16.1489 10.5143 -16.4492 10.469 -16.7892 10.469C-17.6166 10.469 -18.2342 10.7297 -18.6422 11.251C-19.0389 11.761 -19.2372 12.3843 -19.2372 13.121V18H-20.6142V11.846C-20.6142 10.962 -20.6596 10.163 -20.7502 9.449H-19.4412L-19.3052 11.03C-19.0899 10.452 -18.7442 10.01 -18.2682 9.704C-17.7922 9.398 -17.2482 9.245 -16.6362 9.245ZM-7.99556 13.682H-14.2686C-14.2572 14.77 -14.0079 15.5917 -13.5206 16.147C-13.0219 16.7023 -12.3022 16.98 -11.3616 16.98C-10.3642 16.98 -9.44622 16.6457 -8.60756 15.977L-8.14856 16.98C-8.52256 17.3313 -9.00422 17.609 -9.59356 17.813C-10.1716 18.017 -10.7666 18.119 -11.3786 18.119C-12.7159 18.119 -13.7642 17.728 -14.5236 16.946C-15.2829 16.1527 -15.6626 15.0703 -15.6626 13.699C-15.6626 12.8263 -15.4926 12.0557 -15.1526 11.387C-14.8126 10.707 -14.3366 10.18 -13.7246 9.806C-13.1126 9.432 -12.4156 9.245 -11.6336 9.245C-10.5002 9.245 -9.61056 9.619 -8.96456 10.367C-8.31856 11.1037 -7.99556 12.1237 -7.99556 13.427V13.682ZM-11.6166 10.316C-12.3306 10.316 -12.9142 10.5313 -13.3676 10.962C-13.8096 11.3927 -14.0929 11.999 -14.2176 12.781H-9.23656C-9.30456 11.9763 -9.54256 11.3643 -9.95056 10.945C-10.3472 10.5257 -10.9026 10.316 -11.6166 10.316ZM3.04904 9.245C4.9417 9.245 5.88804 10.3727 5.88804 12.628V18H4.51104V12.696C4.51104 11.8913 4.36937 11.3077 4.08604 10.945C3.81404 10.5823 3.36637 10.401 2.74304 10.401C2.0177 10.401 1.45104 10.6447 1.04304 11.132C0.635038 11.6193 0.431038 12.2823 0.431038 13.121V18H-0.945962V12.696C-0.945962 11.9027 -1.08763 11.3247 -1.37096 10.962C-1.6543 10.588 -2.10763 10.401 -2.73096 10.401C-3.4563 10.401 -4.02863 10.6447 -4.44796 11.132C-4.85596 11.6193 -5.05996 12.2823 -5.05996 13.121V18H-6.43696V11.846C-6.43696 10.962 -6.4823 10.163 -6.57296 9.449H-5.26396L-5.12796 10.945C-4.88996 10.401 -4.53863 9.98167 -4.07396 9.687C-3.59796 9.39233 -3.0483 9.245 -2.42496 9.245C-1.74496 9.245 -1.18963 9.381 -0.758962 9.653C-0.328295 9.925 -0.010962 10.3443 0.193038 10.911C0.453705 10.401 0.833371 9.99867 1.33204 9.704C1.84204 9.398 2.41437 9.245 3.04904 9.245ZM11.8741 9.449H13.2511V18H11.8741V9.449ZM13.4211 5.828V7.392H11.7381V5.828H13.4211ZM19.6604 9.245C20.4084 9.245 21.0714 9.432 21.6494 9.806C22.2274 10.18 22.6751 10.707 22.9924 11.387C23.3098 12.0557 23.4684 12.832 23.4684 13.716C23.4684 14.6 23.3098 15.3763 22.9924 16.045C22.6751 16.7023 22.2274 17.2123 21.6494 17.575C21.0828 17.9377 20.4198 18.119 19.6604 18.119C18.9918 18.119 18.4081 17.9717 17.9094 17.677C17.4108 17.3823 17.0311 16.963 16.7704 16.419V21.672H15.3934V11.846C15.3934 10.962 15.3481 10.163 15.2574 9.449H16.5664L16.7024 11.098C16.9404 10.5087 17.3144 10.0553 17.8244 9.738C18.3458 9.40933 18.9578 9.245 19.6604 9.245ZM19.4054 16.98C20.2441 16.98 20.8901 16.6967 21.3434 16.13C21.8081 15.5633 22.0404 14.7587 22.0404 13.716C22.0404 12.6733 21.8081 11.863 21.3434 11.285C20.8788 10.6957 20.2328 10.401 19.4054 10.401C18.5554 10.401 17.9038 10.6843 17.4504 11.251C16.9971 11.8177 16.7704 12.628 16.7704 13.682C16.7704 14.736 16.9971 15.552 17.4504 16.13C17.9038 16.6967 18.5554 16.98 19.4054 16.98ZM27.9453 18.119C26.506 18.119 25.367 17.7507 24.5283 17.014L24.9873 15.994C25.452 16.3567 25.9223 16.6173 26.3983 16.776C26.8743 16.9347 27.407 17.014 27.9963 17.014C28.6423 17.014 29.1296 16.9063 29.4583 16.691C29.7983 16.4643 29.9683 16.1413 29.9683 15.722C29.9683 15.382 29.855 15.11 29.6283 14.906C29.4016 14.702 29.0276 14.5433 28.5063 14.43L27.0613 14.09C26.3473 13.9313 25.792 13.648 25.3953 13.24C25.01 12.832 24.8173 12.3447 24.8173 11.778C24.8173 11.03 25.1176 10.4237 25.7183 9.959C26.319 9.483 27.1123 9.245 28.0983 9.245C28.699 9.245 29.2656 9.34133 29.7983 9.534C30.331 9.72667 30.7786 10.0043 31.1413 10.367L30.6823 11.37C29.8776 10.7013 29.0163 10.367 28.0983 10.367C27.4863 10.367 27.0103 10.486 26.6703 10.724C26.3416 10.9507 26.1773 11.2737 26.1773 11.693C26.1773 12.0443 26.2793 12.322 26.4833 12.526C26.6986 12.73 27.0386 12.8887 27.5033 13.002L28.9483 13.359C29.7416 13.5403 30.331 13.8237 30.7163 14.209C31.1016 14.583 31.2943 15.076 31.2943 15.688C31.2943 16.4247 30.994 17.014 30.3933 17.456C29.7926 17.898 28.9766 18.119 27.9453 18.119ZM40.1144 9.449V18H38.7714V16.521C38.4994 17.0423 38.1198 17.439 37.6324 17.711C37.1451 17.983 36.5954 18.119 35.9834 18.119C34.9748 18.119 34.2098 17.8357 33.6884 17.269C33.1671 16.7023 32.9064 15.8637 32.9064 14.753V9.449H34.2834V14.719C34.2834 15.4897 34.4421 16.0563 34.7594 16.419C35.0768 16.7817 35.5584 16.963 36.2044 16.963C36.9638 16.963 37.5758 16.7193 38.0404 16.232C38.5051 15.7333 38.7374 15.0817 38.7374 14.277V9.449H40.1144ZM51.7235 9.245C53.6162 9.245 54.5625 10.3727 54.5625 12.628V18H53.1855V12.696C53.1855 11.8913 53.0438 11.3077 52.7605 10.945C52.4885 10.5823 52.0408 10.401 51.4175 10.401C50.6922 10.401 50.1255 10.6447 49.7175 11.132C49.3095 11.6193 49.1055 12.2823 49.1055 13.121V18H47.7285V12.696C47.7285 11.9027 47.5868 11.3247 47.3035 10.962C47.0202 10.588 46.5668 10.401 45.9435 10.401C45.2182 10.401 44.6458 10.6447 44.2265 11.132C43.8185 11.6193 43.6145 12.2823 43.6145 13.121V18H42.2375V11.846C42.2375 10.962 42.1922 10.163 42.1015 9.449H43.4105L43.5465 10.945C43.7845 10.401 44.1358 9.98167 44.6005 9.687C45.0765 9.39233 45.6262 9.245 46.2495 9.245C46.9295 9.245 47.4848 9.381 47.9155 9.653C48.3462 9.925 48.6635 10.3443 48.8675 10.911C49.1282 10.401 49.5078 9.99867 50.0065 9.704C50.5165 9.398 51.0888 9.245 51.7235 9.245ZM-38.3569 55.896H-36.9629V66.81H-30.8939V68H-38.3569V55.896ZM-26.2753 68.119C-27.08 68.119 -27.7883 67.9377 -28.4003 67.575C-29.0123 67.2123 -29.4883 66.6967 -29.8283 66.028C-30.157 65.3593 -30.3213 64.5773 -30.3213 63.682C-30.3213 62.7867 -30.157 62.0047 -29.8283 61.336C-29.4883 60.6673 -29.0123 60.1517 -28.4003 59.789C-27.7883 59.4263 -27.08 59.245 -26.2753 59.245C-25.4706 59.245 -24.7623 59.4263 -24.1503 59.789C-23.5383 60.1517 -23.068 60.6673 -22.7393 61.336C-22.3993 62.0047 -22.2293 62.7867 -22.2293 63.682C-22.2293 64.5773 -22.3993 65.3593 -22.7393 66.028C-23.068 66.6967 -23.5383 67.2123 -24.1503 67.575C-24.7623 67.9377 -25.4706 68.119 -26.2753 68.119ZM-26.2753 66.98C-25.4253 66.98 -24.7736 66.7023 -24.3203 66.147C-23.867 65.5803 -23.6403 64.7587 -23.6403 63.682C-23.6403 62.6393 -23.8726 61.8347 -24.3373 61.268C-24.802 60.69 -25.448 60.401 -26.2753 60.401C-27.114 60.401 -27.7656 60.69 -28.2303 61.268C-28.695 61.8347 -28.9273 62.6393 -28.9273 63.682C-28.9273 64.7587 -28.7006 65.5803 -28.2473 66.147C-27.7826 66.7023 -27.1253 66.98 -26.2753 66.98ZM-16.6362 59.245C-16.3529 59.245 -16.0922 59.279 -15.8542 59.347L-15.8882 60.605C-16.1489 60.5143 -16.4492 60.469 -16.7892 60.469C-17.6166 60.469 -18.2342 60.7297 -18.6422 61.251C-19.0389 61.761 -19.2372 62.3843 -19.2372 63.121V68H-20.6142V61.846C-20.6142 60.962 -20.6596 60.163 -20.7502 59.449H-19.4412L-19.3052 61.03C-19.0899 60.452 -18.7442 60.01 -18.2682 59.704C-17.7922 59.398 -17.2482 59.245 -16.6362 59.245ZM-7.99556 63.682H-14.2686C-14.2572 64.77 -14.0079 65.5917 -13.5206 66.147C-13.0219 66.7023 -12.3022 66.98 -11.3616 66.98C-10.3642 66.98 -9.44622 66.6457 -8.60756 65.977L-8.14856 66.98C-8.52256 67.3313 -9.00422 67.609 -9.59356 67.813C-10.1716 68.017 -10.7666 68.119 -11.3786 68.119C-12.7159 68.119 -13.7642 67.728 -14.5236 66.946C-15.2829 66.1527 -15.6626 65.0703 -15.6626 63.699C-15.6626 62.8263 -15.4926 62.0557 -15.1526 61.387C-14.8126 60.707 -14.3366 60.18 -13.7246 59.806C-13.1126 59.432 -12.4156 59.245 -11.6336 59.245C-10.5002 59.245 -9.61056 59.619 -8.96456 60.367C-8.31856 61.1037 -7.99556 62.1237 -7.99556 63.427V63.682ZM-11.6166 60.316C-12.3306 60.316 -12.9142 60.5313 -13.3676 60.962C-13.8096 61.3927 -14.0929 61.999 -14.2176 62.781H-9.23656C-9.30456 61.9763 -9.54256 61.3643 -9.95056 60.945C-10.3472 60.5257 -10.9026 60.316 -11.6166 60.316ZM3.04904 59.245C4.9417 59.245 5.88804 60.3727 5.88804 62.628V68H4.51104V62.696C4.51104 61.8913 4.36937 61.3077 4.08604 60.945C3.81404 60.5823 3.36637 60.401 2.74304 60.401C2.0177 60.401 1.45104 60.6447 1.04304 61.132C0.635038 61.6193 0.431038 62.2823 0.431038 63.121V68H-0.945962V62.696C-0.945962 61.9027 -1.08763 61.3247 -1.37096 60.962C-1.6543 60.588 -2.10763 60.401 -2.73096 60.401C-3.4563 60.401 -4.02863 60.6447 -4.44796 61.132C-4.85596 61.6193 -5.05996 62.2823 -5.05996 63.121V68H-6.43696V61.846C-6.43696 60.962 -6.4823 60.163 -6.57296 59.449H-5.26396L-5.12796 60.945C-4.88996 60.401 -4.53863 59.9817 -4.07396 59.687C-3.59796 59.3923 -3.0483 59.245 -2.42496 59.245C-1.74496 59.245 -1.18963 59.381 -0.758962 59.653C-0.328295 59.925 -0.010962 60.3443 0.193038 60.911C0.453705 60.401 0.833371 59.9987 1.33204 59.704C1.84204 59.398 2.41437 59.245 3.04904 59.245ZM11.8741 59.449H13.2511V68H11.8741V59.449ZM13.4211 55.828V57.392H11.7381V55.828H13.4211ZM19.6604 59.245C20.4084 59.245 21.0714 59.432 21.6494 59.806C22.2274 60.18 22.6751 60.707 22.9924 61.387C23.3098 62.0557 23.4684 62.832 23.4684 63.716C23.4684 64.6 23.3098 65.3763 22.9924 66.045C22.6751 66.7023 22.2274 67.2123 21.6494 67.575C21.0828 67.9377 20.4198 68.119 19.6604 68.119C18.9918 68.119 18.4081 67.9717 17.9094 67.677C17.4108 67.3823 17.0311 66.963 16.7704 66.419V71.672H15.3934V61.846C15.3934 60.962 15.3481 60.163 15.2574 59.449H16.5664L16.7024 61.098C16.9404 60.5087 17.3144 60.0553 17.8244 59.738C18.3458 59.4093 18.9578 59.245 19.6604 59.245ZM19.4054 66.98C20.2441 66.98 20.8901 66.6967 21.3434 66.13C21.8081 65.5633 22.0404 64.7587 22.0404 63.716C22.0404 62.6733 21.8081 61.863 21.3434 61.285C20.8788 60.6957 20.2328 60.401 19.4054 60.401C18.5554 60.401 17.9038 60.6843 17.4504 61.251C16.9971 61.8177 16.7704 62.628 16.7704 63.682C16.7704 64.736 16.9971 65.552 17.4504 66.13C17.9038 66.6967 18.5554 66.98 19.4054 66.98ZM27.9453 68.119C26.506 68.119 25.367 67.7507 24.5283 67.014L24.9873 65.994C25.452 66.3567 25.9223 66.6173 26.3983 66.776C26.8743 66.9347 27.407 67.014 27.9963 67.014C28.6423 67.014 29.1296 66.9063 29.4583 66.691C29.7983 66.4643 29.9683 66.1413 29.9683 65.722C29.9683 65.382 29.855 65.11 29.6283 64.906C29.4016 64.702 29.0276 64.5433 28.5063 64.43L27.0613 64.09C26.3473 63.9313 25.792 63.648 25.3953 63.24C25.01 62.832 24.8173 62.3447 24.8173 61.778C24.8173 61.03 25.1176 60.4237 25.7183 59.959C26.319 59.483 27.1123 59.245 28.0983 59.245C28.699 59.245 29.2656 59.3413 29.7983 59.534C30.331 59.7267 30.7786 60.0043 31.1413 60.367L30.6823 61.37C29.8776 60.7013 29.0163 60.367 28.0983 60.367C27.4863 60.367 27.0103 60.486 26.6703 60.724C26.3416 60.9507 26.1773 61.2737 26.1773 61.693C26.1773 62.0443 26.2793 62.322 26.4833 62.526C26.6986 62.73 27.0386 62.8887 27.5033 63.002L28.9483 63.359C29.7416 63.5403 30.331 63.8237 30.7163 64.209C31.1016 64.583 31.2943 65.076 31.2943 65.688C31.2943 66.4247 30.994 67.014 30.3933 67.456C29.7926 67.898 28.9766 68.119 27.9453 68.119ZM40.1144 59.449V68H38.7714V66.521C38.4994 67.0423 38.1198 67.439 37.6324 67.711C37.1451 67.983 36.5954 68.119 35.9834 68.119C34.9748 68.119 34.2098 67.8357 33.6884 67.269C33.1671 66.7023 32.9064 65.8637 32.9064 64.753V59.449H34.2834V64.719C34.2834 65.4897 34.4421 66.0563 34.7594 66.419C35.0768 66.7817 35.5584 66.963 36.2044 66.963C36.9638 66.963 37.5758 66.7193 38.0404 66.232C38.5051 65.7333 38.7374 65.0817 38.7374 64.277V59.449H40.1144ZM51.7235 59.245C53.6162 59.245 54.5625 60.3727 54.5625 62.628V68H53.1855V62.696C53.1855 61.8913 53.0438 61.3077 52.7605 60.945C52.4885 60.5823 52.0408 60.401 51.4175 60.401C50.6922 60.401 50.1255 60.6447 49.7175 61.132C49.3095 61.6193 49.1055 62.2823 49.1055 63.121V68H47.7285V62.696C47.7285 61.9027 47.5868 61.3247 47.3035 60.962C47.0202 60.588 46.5668 60.401 45.9435 60.401C45.2182 60.401 44.6458 60.6447 44.2265 61.132C43.8185 61.6193 43.6145 62.2823 43.6145 63.121V68H42.2375V61.846C42.2375 60.962 42.1922 60.163 42.1015 59.449H43.4105L43.5465 60.945C43.7845 60.401 44.1358 59.9817 44.6005 59.687C45.0765 59.3923 45.6262 59.245 46.2495 59.245C46.9295 59.245 47.4848 59.381 47.9155 59.653C48.3462 59.925 48.6635 60.3443 48.8675 60.911C49.1282 60.401 49.5078 59.9987 50.0065 59.704C50.5165 59.398 51.0888 59.245 51.7235 59.245ZM-38.3569 105.896H-36.9629V116.81H-30.8939V118H-38.3569V105.896ZM-26.2753 118.119C-27.08 118.119 -27.7883 117.938 -28.4003 117.575C-29.0123 117.212 -29.4883 116.697 -29.8283 116.028C-30.157 115.359 -30.3213 114.577 -30.3213 113.682C-30.3213 112.787 -30.157 112.005 -29.8283 111.336C-29.4883 110.667 -29.0123 110.152 -28.4003 109.789C-27.7883 109.426 -27.08 109.245 -26.2753 109.245C-25.4706 109.245 -24.7623 109.426 -24.1503 109.789C-23.5383 110.152 -23.068 110.667 -22.7393 111.336C-22.3993 112.005 -22.2293 112.787 -22.2293 113.682C-22.2293 114.577 -22.3993 115.359 -22.7393 116.028C-23.068 116.697 -23.5383 117.212 -24.1503 117.575C-24.7623 117.938 -25.4706 118.119 -26.2753 118.119ZM-26.2753 116.98C-25.4253 116.98 -24.7736 116.702 -24.3203 116.147C-23.867 115.58 -23.6403 114.759 -23.6403 113.682C-23.6403 112.639 -23.8726 111.835 -24.3373 111.268C-24.802 110.69 -25.448 110.401 -26.2753 110.401C-27.114 110.401 -27.7656 110.69 -28.2303 111.268C-28.695 111.835 -28.9273 112.639 -28.9273 113.682C-28.9273 114.759 -28.7006 115.58 -28.2473 116.147C-27.7826 116.702 -27.1253 116.98 -26.2753 116.98ZM-16.6362 109.245C-16.3529 109.245 -16.0922 109.279 -15.8542 109.347L-15.8882 110.605C-16.1489 110.514 -16.4492 110.469 -16.7892 110.469C-17.6166 110.469 -18.2342 110.73 -18.6422 111.251C-19.0389 111.761 -19.2372 112.384 -19.2372 113.121V118H-20.6142V111.846C-20.6142 110.962 -20.6596 110.163 -20.7502 109.449H-19.4412L-19.3052 111.03C-19.0899 110.452 -18.7442 110.01 -18.2682 109.704C-17.7922 109.398 -17.2482 109.245 -16.6362 109.245ZM-7.99556 113.682H-14.2686C-14.2572 114.77 -14.0079 115.592 -13.5206 116.147C-13.0219 116.702 -12.3022 116.98 -11.3616 116.98C-10.3642 116.98 -9.44622 116.646 -8.60756 115.977L-8.14856 116.98C-8.52256 117.331 -9.00422 117.609 -9.59356 117.813C-10.1716 118.017 -10.7666 118.119 -11.3786 118.119C-12.7159 118.119 -13.7642 117.728 -14.5236 116.946C-15.2829 116.153 -15.6626 115.07 -15.6626 113.699C-15.6626 112.826 -15.4926 112.056 -15.1526 111.387C-14.8126 110.707 -14.3366 110.18 -13.7246 109.806C-13.1126 109.432 -12.4156 109.245 -11.6336 109.245C-10.5002 109.245 -9.61056 109.619 -8.96456 110.367C-8.31856 111.104 -7.99556 112.124 -7.99556 113.427V113.682ZM-11.6166 110.316C-12.3306 110.316 -12.9142 110.531 -13.3676 110.962C-13.8096 111.393 -14.0929 111.999 -14.2176 112.781H-9.23656C-9.30456 111.976 -9.54256 111.364 -9.95056 110.945C-10.3472 110.526 -10.9026 110.316 -11.6166 110.316ZM3.04904 109.245C4.9417 109.245 5.88804 110.373 5.88804 112.628V118H4.51104V112.696C4.51104 111.891 4.36937 111.308 4.08604 110.945C3.81404 110.582 3.36637 110.401 2.74304 110.401C2.0177 110.401 1.45104 110.645 1.04304 111.132C0.635038 111.619 0.431038 112.282 0.431038 113.121V118H-0.945962V112.696C-0.945962 111.903 -1.08763 111.325 -1.37096 110.962C-1.6543 110.588 -2.10763 110.401 -2.73096 110.401C-3.4563 110.401 -4.02863 110.645 -4.44796 111.132C-4.85596 111.619 -5.05996 112.282 -5.05996 113.121V118H-6.43696V111.846C-6.43696 110.962 -6.4823 110.163 -6.57296 109.449H-5.26396L-5.12796 110.945C-4.88996 110.401 -4.53863 109.982 -4.07396 109.687C-3.59796 109.392 -3.0483 109.245 -2.42496 109.245C-1.74496 109.245 -1.18963 109.381 -0.758962 109.653C-0.328295 109.925 -0.010962 110.344 0.193038 110.911C0.453705 110.401 0.833371 109.999 1.33204 109.704C1.84204 109.398 2.41437 109.245 3.04904 109.245ZM11.8741 109.449H13.2511V118H11.8741V109.449ZM13.4211 105.828V107.392H11.7381V105.828H13.4211ZM19.6604 109.245C20.4084 109.245 21.0714 109.432 21.6494 109.806C22.2274 110.18 22.6751 110.707 22.9924 111.387C23.3098 112.056 23.4684 112.832 23.4684 113.716C23.4684 114.6 23.3098 115.376 22.9924 116.045C22.6751 116.702 22.2274 117.212 21.6494 117.575C21.0828 117.938 20.4198 118.119 19.6604 118.119C18.9918 118.119 18.4081 117.972 17.9094 117.677C17.4108 117.382 17.0311 116.963 16.7704 116.419V121.672H15.3934V111.846C15.3934 110.962 15.3481 110.163 15.2574 109.449H16.5664L16.7024 111.098C16.9404 110.509 17.3144 110.055 17.8244 109.738C18.3458 109.409 18.9578 109.245 19.6604 109.245ZM19.4054 116.98C20.2441 116.98 20.8901 116.697 21.3434 116.13C21.8081 115.563 22.0404 114.759 22.0404 113.716C22.0404 112.673 21.8081 111.863 21.3434 111.285C20.8788 110.696 20.2328 110.401 19.4054 110.401C18.5554 110.401 17.9038 110.684 17.4504 111.251C16.9971 111.818 16.7704 112.628 16.7704 113.682C16.7704 114.736 16.9971 115.552 17.4504 116.13C17.9038 116.697 18.5554 116.98 19.4054 116.98ZM27.9453 118.119C26.506 118.119 25.367 117.751 24.5283 117.014L24.9873 115.994C25.452 116.357 25.9223 116.617 26.3983 116.776C26.8743 116.935 27.407 117.014 27.9963 117.014C28.6423 117.014 29.1296 116.906 29.4583 116.691C29.7983 116.464 29.9683 116.141 29.9683 115.722C29.9683 115.382 29.855 115.11 29.6283 114.906C29.4016 114.702 29.0276 114.543 28.5063 114.43L27.0613 114.09C26.3473 113.931 25.792 113.648 25.3953 113.24C25.01 112.832 24.8173 112.345 24.8173 111.778C24.8173 111.03 25.1176 110.424 25.7183 109.959C26.319 109.483 27.1123 109.245 28.0983 109.245C28.699 109.245 29.2656 109.341 29.7983 109.534C30.331 109.727 30.7786 110.004 31.1413 110.367L30.6823 111.37C29.8776 110.701 29.0163 110.367 28.0983 110.367C27.4863 110.367 27.0103 110.486 26.6703 110.724C26.3416 110.951 26.1773 111.274 26.1773 111.693C26.1773 112.044 26.2793 112.322 26.4833 112.526C26.6986 112.73 27.0386 112.889 27.5033 113.002L28.9483 113.359C29.7416 113.54 30.331 113.824 30.7163 114.209C31.1016 114.583 31.2943 115.076 31.2943 115.688C31.2943 116.425 30.994 117.014 30.3933 117.456C29.7926 117.898 28.9766 118.119 27.9453 118.119ZM40.1144 109.449V118H38.7714V116.521C38.4994 117.042 38.1198 117.439 37.6324 117.711C37.1451 117.983 36.5954 118.119 35.9834 118.119C34.9748 118.119 34.2098 117.836 33.6884 117.269C33.1671 116.702 32.9064 115.864 32.9064 114.753V109.449H34.2834V114.719C34.2834 115.49 34.4421 116.056 34.7594 116.419C35.0768 116.782 35.5584 116.963 36.2044 116.963C36.9638 116.963 37.5758 116.719 38.0404 116.232C38.5051 115.733 38.7374 115.082 38.7374 114.277V109.449H40.1144ZM51.7235 109.245C53.6162 109.245 54.5625 110.373 54.5625 112.628V118H53.1855V112.696C53.1855 111.891 53.0438 111.308 52.7605 110.945C52.4885 110.582 52.0408 110.401 51.4175 110.401C50.6922 110.401 50.1255 110.645 49.7175 111.132C49.3095 111.619 49.1055 112.282 49.1055 113.121V118H47.7285V112.696C47.7285 111.903 47.5868 111.325 47.3035 110.962C47.0202 110.588 46.5668 110.401 45.9435 110.401C45.2182 110.401 44.6458 110.645 44.2265 111.132C43.8185 111.619 43.6145 112.282 43.6145 113.121V118H42.2375V111.846C42.2375 110.962 42.1922 110.163 42.1015 109.449H43.4105L43.5465 110.945C43.7845 110.401 44.1358 109.982 44.6005 109.687C45.0765 109.392 45.6262 109.245 46.2495 109.245C46.9295 109.245 47.4848 109.381 47.9155 109.653C48.3462 109.925 48.6635 110.344 48.8675 110.911C49.1282 110.401 49.5078 109.999 50.0065 109.704C50.5165 109.398 51.0888 109.245 51.7235 109.245Z" fill="#696871"/>
</g>
<rect x="-121.5" y="-180.5" width="285" height="453" rx="9.5" stroke="#CECECE"/>
<rect x="-139" y="-468" width="320" height="568" fill="black" fill-opacity="0.3"/>
<rect x="-48" y="-468" width="229" height="568" fill="#4A919E"/>
<path d="M7.34811 3.32517C5.48034 3.32517 3.97379 4.88762 3.97379 6.8247C3.97379 8.76178 5.48034 10.3242 7.34811 10.3242C9.21589 10.3242 10.7224 8.76178 10.7224 6.8247C10.7224 4.88762 9.21589 3.32517 7.34811 3.32517ZM7.34811 9.09986C6.14111 9.09986 5.15436 8.07954 5.15436 6.8247C5.15436 5.56987 6.13817 4.54955 7.34811 4.54955C8.55806 4.54955 9.54187 5.56987 9.54187 6.8247C9.54187 8.07954 8.55512 9.09986 7.34811 9.09986ZM11.6475 3.18202C11.6475 3.63583 11.2951 3.99827 10.8605 3.99827C10.4229 3.99827 10.0734 3.63279 10.0734 3.18202C10.0734 2.73125 10.4258 2.36577 10.8605 2.36577C11.2951 2.36577 11.6475 2.73125 11.6475 3.18202ZM13.8824 4.01046C13.8325 2.91704 13.5917 1.9485 12.8193 1.15052C12.0499 0.352542 11.116 0.102793 10.0617 0.0479701C8.97508 -0.01599 5.71822 -0.01599 4.63162 0.0479701C3.58026 0.0997474 2.64637 0.349497 1.87401 1.14748C1.10164 1.94546 0.863764 2.914 0.810902 4.00741C0.74923 5.13433 0.74923 8.51203 0.810902 9.63895C0.860827 10.7324 1.10164 11.7009 1.87401 12.4989C2.64637 13.2969 3.57732 13.5466 4.63162 13.6014C5.71822 13.6654 8.97508 13.6654 10.0617 13.6014C11.116 13.5497 12.0499 13.2999 12.8193 12.4989C13.5887 11.7009 13.8295 10.7324 13.8824 9.63895C13.9441 8.51203 13.9441 5.13737 13.8824 4.01046ZM12.4786 10.8481C12.2496 11.4451 11.8061 11.905 11.2276 12.1456C10.3612 12.5019 8.3055 12.4197 7.34811 12.4197C6.39073 12.4197 4.33207 12.4989 3.46866 12.1456C2.89306 11.908 2.44961 11.4481 2.21761 10.8481C1.87401 9.94961 1.9533 7.81761 1.9533 6.8247C1.9533 5.8318 1.87694 3.69675 2.21761 2.8013C2.44667 2.20434 2.89012 1.74444 3.46866 1.50383C4.33501 1.14748 6.39073 1.22971 7.34811 1.22971C8.3055 1.22971 10.3642 1.15052 11.2276 1.50383C11.8032 1.74139 12.2466 2.2013 12.4786 2.8013C12.8222 3.69979 12.7429 5.8318 12.7429 6.8247C12.7429 7.81761 12.8222 9.95266 12.4786 10.8481Z" fill="white"/>
</g>
<defs>
<clipPath id="clip0_529_3822">
<rect x="-139" y="-468" width="320" height="568" rx="20" fill="white"/>
</clipPath>
<clipPath id="clip1_529_3822">
<rect x="-122" y="-181" width="286" height="454" rx="10" fill="white"/>
</clipPath>
</defs>
</svg>
