<svg width="20" height="14" viewBox="0 0 20 14" fill="none" xmlns="http://www.w3.org/2000/svg">
<rect width="20" height="14" fill="#E5E5E5"/>
<g clip-path="url(#clip0_529_3822)">
<rect x="-177" y="-468" width="320" height="568" rx="20" fill="#F9F9FA"/>
<rect x="-177" y="-399" width="320" height="695" fill="#4A919E" fill-opacity="0.1"/>
<g clip-path="url(#clip1_529_3822)">
<rect x="-160" y="-181" width="286" height="454" rx="10" fill="white"/>
<path d="M-76.3569 5.896H-74.9629V16.81H-68.8939V18H-76.3569V5.896ZM-64.2753 18.119C-65.08 18.119 -65.7883 17.9377 -66.4003 17.575C-67.0123 17.2123 -67.4883 16.6967 -67.8283 16.028C-68.157 15.3593 -68.3213 14.5773 -68.3213 13.682C-68.3213 12.7867 -68.157 12.0047 -67.8283 11.336C-67.4883 10.6673 -67.0123 10.1517 -66.4003 9.789C-65.7883 9.42633 -65.08 9.245 -64.2753 9.245C-63.4706 9.245 -62.7623 9.42633 -62.1503 9.789C-61.5383 10.1517 -61.068 10.6673 -60.7393 11.336C-60.3993 12.0047 -60.2293 12.7867 -60.2293 13.682C-60.2293 14.5773 -60.3993 15.3593 -60.7393 16.028C-61.068 16.6967 -61.5383 17.2123 -62.1503 17.575C-62.7623 17.9377 -63.4706 18.119 -64.2753 18.119ZM-64.2753 16.98C-63.4253 16.98 -62.7736 16.7023 -62.3203 16.147C-61.867 15.5803 -61.6403 14.7587 -61.6403 13.682C-61.6403 12.6393 -61.8726 11.8347 -62.3373 11.268C-62.802 10.69 -63.448 10.401 -64.2753 10.401C-65.114 10.401 -65.7656 10.69 -66.2303 11.268C-66.695 11.8347 -66.9273 12.6393 -66.9273 13.682C-66.9273 14.7587 -66.7006 15.5803 -66.2473 16.147C-65.7826 16.7023 -65.1253 16.98 -64.2753 16.98ZM-54.6362 9.245C-54.3529 9.245 -54.0922 9.279 -53.8542 9.347L-53.8882 10.605C-54.1489 10.5143 -54.4492 10.469 -54.7892 10.469C-55.6166 10.469 -56.2342 10.7297 -56.6422 11.251C-57.0389 11.761 -57.2372 12.3843 -57.2372 13.121V18H-58.6142V11.846C-58.6142 10.962 -58.6596 10.163 -58.7502 9.449H-57.4412L-57.3052 11.03C-57.0899 10.452 -56.7442 10.01 -56.2682 9.704C-55.7922 9.398 -55.2482 9.245 -54.6362 9.245ZM-45.9956 13.682H-52.2686C-52.2572 14.77 -52.0079 15.5917 -51.5206 16.147C-51.0219 16.7023 -50.3022 16.98 -49.3616 16.98C-48.3642 16.98 -47.4462 16.6457 -46.6076 15.977L-46.1486 16.98C-46.5226 17.3313 -47.0042 17.609 -47.5936 17.813C-48.1716 18.017 -48.7666 18.119 -49.3786 18.119C-50.7159 18.119 -51.7642 17.728 -52.5236 16.946C-53.2829 16.1527 -53.6626 15.0703 -53.6626 13.699C-53.6626 12.8263 -53.4926 12.0557 -53.1526 11.387C-52.8126 10.707 -52.3366 10.18 -51.7246 9.806C-51.1126 9.432 -50.4156 9.245 -49.6336 9.245C-48.5002 9.245 -47.6106 9.619 -46.9646 10.367C-46.3186 11.1037 -45.9956 12.1237 -45.9956 13.427V13.682ZM-49.6166 10.316C-50.3306 10.316 -50.9142 10.5313 -51.3676 10.962C-51.8096 11.3927 -52.0929 11.999 -52.2176 12.781H-47.2366C-47.3046 11.9763 -47.5426 11.3643 -47.9506 10.945C-48.3472 10.5257 -48.9026 10.316 -49.6166 10.316ZM-34.951 9.245C-33.0583 9.245 -32.112 10.3727 -32.112 12.628V18H-33.489V12.696C-33.489 11.8913 -33.6306 11.3077 -33.914 10.945C-34.186 10.5823 -34.6336 10.401 -35.257 10.401C-35.9823 10.401 -36.549 10.6447 -36.957 11.132C-37.365 11.6193 -37.569 12.2823 -37.569 13.121V18H-38.946V12.696C-38.946 11.9027 -39.0876 11.3247 -39.371 10.962C-39.6543 10.588 -40.1076 10.401 -40.731 10.401C-41.4563 10.401 -42.0286 10.6447 -42.448 11.132C-42.856 11.6193 -43.06 12.2823 -43.06 13.121V18H-44.437V11.846C-44.437 10.962 -44.4823 10.163 -44.573 9.449H-43.264L-43.128 10.945C-42.89 10.401 -42.5386 9.98167 -42.074 9.687C-41.598 9.39233 -41.0483 9.245 -40.425 9.245C-39.745 9.245 -39.1896 9.381 -38.759 9.653C-38.3283 9.925 -38.011 10.3443 -37.807 10.911C-37.5463 10.401 -37.1666 9.99867 -36.668 9.704C-36.158 9.398 -35.5856 9.245 -34.951 9.245ZM-26.1259 9.449H-24.7489V18H-26.1259V9.449ZM-24.5789 5.828V7.392H-26.2619V5.828H-24.5789ZM-18.3396 9.245C-17.5916 9.245 -16.9286 9.432 -16.3506 9.806C-15.7726 10.18 -15.3249 10.707 -15.0076 11.387C-14.6902 12.0557 -14.5316 12.832 -14.5316 13.716C-14.5316 14.6 -14.6902 15.3763 -15.0076 16.045C-15.3249 16.7023 -15.7726 17.2123 -16.3506 17.575C-16.9172 17.9377 -17.5802 18.119 -18.3396 18.119C-19.0082 18.119 -19.5919 17.9717 -20.0906 17.677C-20.5892 17.3823 -20.9689 16.963 -21.2296 16.419V21.672H-22.6066V11.846C-22.6066 10.962 -22.6519 10.163 -22.7426 9.449H-21.4336L-21.2976 11.098C-21.0596 10.5087 -20.6856 10.0553 -20.1756 9.738C-19.6542 9.40933 -19.0422 9.245 -18.3396 9.245ZM-18.5946 16.98C-17.7559 16.98 -17.1099 16.6967 -16.6566 16.13C-16.1919 15.5633 -15.9596 14.7587 -15.9596 13.716C-15.9596 12.6733 -16.1919 11.863 -16.6566 11.285C-17.1212 10.6957 -17.7672 10.401 -18.5946 10.401C-19.4446 10.401 -20.0962 10.6843 -20.5496 11.251C-21.0029 11.8177 -21.2296 12.628 -21.2296 13.682C-21.2296 14.736 -21.0029 15.552 -20.5496 16.13C-20.0962 16.6967 -19.4446 16.98 -18.5946 16.98ZM-10.0547 18.119C-11.494 18.119 -12.633 17.7507 -13.4717 17.014L-13.0127 15.994C-12.548 16.3567 -12.0777 16.6173 -11.6017 16.776C-11.1257 16.9347 -10.593 17.014 -10.0037 17.014C-9.35769 17.014 -8.87036 16.9063 -8.54169 16.691C-8.20169 16.4643 -8.03169 16.1413 -8.03169 15.722C-8.03169 15.382 -8.14502 15.11 -8.37169 14.906C-8.59836 14.702 -8.97236 14.5433 -9.49369 14.43L-10.9387 14.09C-11.6527 13.9313 -12.208 13.648 -12.6047 13.24C-12.99 12.832 -13.1827 12.3447 -13.1827 11.778C-13.1827 11.03 -12.8824 10.4237 -12.2817 9.959C-11.681 9.483 -10.8877 9.245 -9.90169 9.245C-9.30102 9.245 -8.73436 9.34133 -8.20169 9.534C-7.66902 9.72667 -7.22136 10.0043 -6.85869 10.367L-7.31769 11.37C-8.12236 10.7013 -8.98369 10.367 -9.90169 10.367C-10.5137 10.367 -10.9897 10.486 -11.3297 10.724C-11.6584 10.9507 -11.8227 11.2737 -11.8227 11.693C-11.8227 12.0443 -11.7207 12.322 -11.5167 12.526C-11.3014 12.73 -10.9614 12.8887 -10.4967 13.002L-9.05169 13.359C-8.25836 13.5403 -7.66902 13.8237 -7.28369 14.209C-6.89836 14.583 -6.70569 15.076 -6.70569 15.688C-6.70569 16.4247 -7.00602 17.014 -7.60669 17.456C-8.20736 17.898 -9.02336 18.119 -10.0547 18.119ZM2.11442 9.449V18H0.771424V16.521C0.499424 17.0423 0.119758 17.439 -0.367576 17.711C-0.854909 17.983 -1.40458 18.119 -2.01658 18.119C-3.02524 18.119 -3.79024 17.8357 -4.31158 17.269C-4.83291 16.7023 -5.09358 15.8637 -5.09358 14.753V9.449H-3.71658V14.719C-3.71658 15.4897 -3.55791 16.0563 -3.24058 16.419C-2.92324 16.7817 -2.44158 16.963 -1.79558 16.963C-1.03624 16.963 -0.424242 16.7193 0.040424 16.232C0.505091 15.7333 0.737424 15.0817 0.737424 14.277V9.449H2.11442ZM13.7235 9.245C15.6162 9.245 16.5625 10.3727 16.5625 12.628V18H15.1855V12.696C15.1855 11.8913 15.0438 11.3077 14.7605 10.945C14.4885 10.5823 14.0408 10.401 13.4175 10.401C12.6922 10.401 12.1255 10.6447 11.7175 11.132C11.3095 11.6193 11.1055 12.2823 11.1055 13.121V18H9.72848V12.696C9.72848 11.9027 9.58682 11.3247 9.30348 10.962C9.02015 10.588 8.56682 10.401 7.94348 10.401C7.21815 10.401 6.64582 10.6447 6.22648 11.132C5.81848 11.6193 5.61448 12.2823 5.61448 13.121V18H4.23748V11.846C4.23748 10.962 4.19215 10.163 4.10148 9.449H5.41048L5.54648 10.945C5.78448 10.401 6.13582 9.98167 6.60048 9.687C7.07648 9.39233 7.62615 9.245 8.24948 9.245C8.92948 9.245 9.48482 9.381 9.91548 9.653C10.3462 9.925 10.6635 10.3443 10.8675 10.911C11.1282 10.401 11.5078 9.99867 12.0065 9.704C12.5165 9.398 13.0888 9.245 13.7235 9.245ZM-76.3569 55.896H-74.9629V66.81H-68.8939V68H-76.3569V55.896ZM-64.2753 68.119C-65.08 68.119 -65.7883 67.9377 -66.4003 67.575C-67.0123 67.2123 -67.4883 66.6967 -67.8283 66.028C-68.157 65.3593 -68.3213 64.5773 -68.3213 63.682C-68.3213 62.7867 -68.157 62.0047 -67.8283 61.336C-67.4883 60.6673 -67.0123 60.1517 -66.4003 59.789C-65.7883 59.4263 -65.08 59.245 -64.2753 59.245C-63.4706 59.245 -62.7623 59.4263 -62.1503 59.789C-61.5383 60.1517 -61.068 60.6673 -60.7393 61.336C-60.3993 62.0047 -60.2293 62.7867 -60.2293 63.682C-60.2293 64.5773 -60.3993 65.3593 -60.7393 66.028C-61.068 66.6967 -61.5383 67.2123 -62.1503 67.575C-62.7623 67.9377 -63.4706 68.119 -64.2753 68.119ZM-64.2753 66.98C-63.4253 66.98 -62.7736 66.7023 -62.3203 66.147C-61.867 65.5803 -61.6403 64.7587 -61.6403 63.682C-61.6403 62.6393 -61.8726 61.8347 -62.3373 61.268C-62.802 60.69 -63.448 60.401 -64.2753 60.401C-65.114 60.401 -65.7656 60.69 -66.2303 61.268C-66.695 61.8347 -66.9273 62.6393 -66.9273 63.682C-66.9273 64.7587 -66.7006 65.5803 -66.2473 66.147C-65.7826 66.7023 -65.1253 66.98 -64.2753 66.98ZM-54.6362 59.245C-54.3529 59.245 -54.0922 59.279 -53.8542 59.347L-53.8882 60.605C-54.1489 60.5143 -54.4492 60.469 -54.7892 60.469C-55.6166 60.469 -56.2342 60.7297 -56.6422 61.251C-57.0389 61.761 -57.2372 62.3843 -57.2372 63.121V68H-58.6142V61.846C-58.6142 60.962 -58.6596 60.163 -58.7502 59.449H-57.4412L-57.3052 61.03C-57.0899 60.452 -56.7442 60.01 -56.2682 59.704C-55.7922 59.398 -55.2482 59.245 -54.6362 59.245ZM-45.9956 63.682H-52.2686C-52.2572 64.77 -52.0079 65.5917 -51.5206 66.147C-51.0219 66.7023 -50.3022 66.98 -49.3616 66.98C-48.3642 66.98 -47.4462 66.6457 -46.6076 65.977L-46.1486 66.98C-46.5226 67.3313 -47.0042 67.609 -47.5936 67.813C-48.1716 68.017 -48.7666 68.119 -49.3786 68.119C-50.7159 68.119 -51.7642 67.728 -52.5236 66.946C-53.2829 66.1527 -53.6626 65.0703 -53.6626 63.699C-53.6626 62.8263 -53.4926 62.0557 -53.1526 61.387C-52.8126 60.707 -52.3366 60.18 -51.7246 59.806C-51.1126 59.432 -50.4156 59.245 -49.6336 59.245C-48.5002 59.245 -47.6106 59.619 -46.9646 60.367C-46.3186 61.1037 -45.9956 62.1237 -45.9956 63.427V63.682ZM-49.6166 60.316C-50.3306 60.316 -50.9142 60.5313 -51.3676 60.962C-51.8096 61.3927 -52.0929 61.999 -52.2176 62.781H-47.2366C-47.3046 61.9763 -47.5426 61.3643 -47.9506 60.945C-48.3472 60.5257 -48.9026 60.316 -49.6166 60.316ZM-34.951 59.245C-33.0583 59.245 -32.112 60.3727 -32.112 62.628V68H-33.489V62.696C-33.489 61.8913 -33.6306 61.3077 -33.914 60.945C-34.186 60.5823 -34.6336 60.401 -35.257 60.401C-35.9823 60.401 -36.549 60.6447 -36.957 61.132C-37.365 61.6193 -37.569 62.2823 -37.569 63.121V68H-38.946V62.696C-38.946 61.9027 -39.0876 61.3247 -39.371 60.962C-39.6543 60.588 -40.1076 60.401 -40.731 60.401C-41.4563 60.401 -42.0286 60.6447 -42.448 61.132C-42.856 61.6193 -43.06 62.2823 -43.06 63.121V68H-44.437V61.846C-44.437 60.962 -44.4823 60.163 -44.573 59.449H-43.264L-43.128 60.945C-42.89 60.401 -42.5386 59.9817 -42.074 59.687C-41.598 59.3923 -41.0483 59.245 -40.425 59.245C-39.745 59.245 -39.1896 59.381 -38.759 59.653C-38.3283 59.925 -38.011 60.3443 -37.807 60.911C-37.5463 60.401 -37.1666 59.9987 -36.668 59.704C-36.158 59.398 -35.5856 59.245 -34.951 59.245ZM-26.1259 59.449H-24.7489V68H-26.1259V59.449ZM-24.5789 55.828V57.392H-26.2619V55.828H-24.5789ZM-18.3396 59.245C-17.5916 59.245 -16.9286 59.432 -16.3506 59.806C-15.7726 60.18 -15.3249 60.707 -15.0076 61.387C-14.6902 62.0557 -14.5316 62.832 -14.5316 63.716C-14.5316 64.6 -14.6902 65.3763 -15.0076 66.045C-15.3249 66.7023 -15.7726 67.2123 -16.3506 67.575C-16.9172 67.9377 -17.5802 68.119 -18.3396 68.119C-19.0082 68.119 -19.5919 67.9717 -20.0906 67.677C-20.5892 67.3823 -20.9689 66.963 -21.2296 66.419V71.672H-22.6066V61.846C-22.6066 60.962 -22.6519 60.163 -22.7426 59.449H-21.4336L-21.2976 61.098C-21.0596 60.5087 -20.6856 60.0553 -20.1756 59.738C-19.6542 59.4093 -19.0422 59.245 -18.3396 59.245ZM-18.5946 66.98C-17.7559 66.98 -17.1099 66.6967 -16.6566 66.13C-16.1919 65.5633 -15.9596 64.7587 -15.9596 63.716C-15.9596 62.6733 -16.1919 61.863 -16.6566 61.285C-17.1212 60.6957 -17.7672 60.401 -18.5946 60.401C-19.4446 60.401 -20.0962 60.6843 -20.5496 61.251C-21.0029 61.8177 -21.2296 62.628 -21.2296 63.682C-21.2296 64.736 -21.0029 65.552 -20.5496 66.13C-20.0962 66.6967 -19.4446 66.98 -18.5946 66.98ZM-10.0547 68.119C-11.494 68.119 -12.633 67.7507 -13.4717 67.014L-13.0127 65.994C-12.548 66.3567 -12.0777 66.6173 -11.6017 66.776C-11.1257 66.9347 -10.593 67.014 -10.0037 67.014C-9.35769 67.014 -8.87036 66.9063 -8.54169 66.691C-8.20169 66.4643 -8.03169 66.1413 -8.03169 65.722C-8.03169 65.382 -8.14502 65.11 -8.37169 64.906C-8.59836 64.702 -8.97236 64.5433 -9.49369 64.43L-10.9387 64.09C-11.6527 63.9313 -12.208 63.648 -12.6047 63.24C-12.99 62.832 -13.1827 62.3447 -13.1827 61.778C-13.1827 61.03 -12.8824 60.4237 -12.2817 59.959C-11.681 59.483 -10.8877 59.245 -9.90169 59.245C-9.30102 59.245 -8.73436 59.3413 -8.20169 59.534C-7.66902 59.7267 -7.22136 60.0043 -6.85869 60.367L-7.31769 61.37C-8.12236 60.7013 -8.98369 60.367 -9.90169 60.367C-10.5137 60.367 -10.9897 60.486 -11.3297 60.724C-11.6584 60.9507 -11.8227 61.2737 -11.8227 61.693C-11.8227 62.0443 -11.7207 62.322 -11.5167 62.526C-11.3014 62.73 -10.9614 62.8887 -10.4967 63.002L-9.05169 63.359C-8.25836 63.5403 -7.66902 63.8237 -7.28369 64.209C-6.89836 64.583 -6.70569 65.076 -6.70569 65.688C-6.70569 66.4247 -7.00602 67.014 -7.60669 67.456C-8.20736 67.898 -9.02336 68.119 -10.0547 68.119ZM2.11442 59.449V68H0.771424V66.521C0.499424 67.0423 0.119758 67.439 -0.367576 67.711C-0.854909 67.983 -1.40458 68.119 -2.01658 68.119C-3.02524 68.119 -3.79024 67.8357 -4.31158 67.269C-4.83291 66.7023 -5.09358 65.8637 -5.09358 64.753V59.449H-3.71658V64.719C-3.71658 65.4897 -3.55791 66.0563 -3.24058 66.419C-2.92324 66.7817 -2.44158 66.963 -1.79558 66.963C-1.03624 66.963 -0.424242 66.7193 0.040424 66.232C0.505091 65.7333 0.737424 65.0817 0.737424 64.277V59.449H2.11442ZM13.7235 59.245C15.6162 59.245 16.5625 60.3727 16.5625 62.628V68H15.1855V62.696C15.1855 61.8913 15.0438 61.3077 14.7605 60.945C14.4885 60.5823 14.0408 60.401 13.4175 60.401C12.6922 60.401 12.1255 60.6447 11.7175 61.132C11.3095 61.6193 11.1055 62.2823 11.1055 63.121V68H9.72848V62.696C9.72848 61.9027 9.58682 61.3247 9.30348 60.962C9.02015 60.588 8.56682 60.401 7.94348 60.401C7.21815 60.401 6.64582 60.6447 6.22648 61.132C5.81848 61.6193 5.61448 62.2823 5.61448 63.121V68H4.23748V61.846C4.23748 60.962 4.19215 60.163 4.10148 59.449H5.41048L5.54648 60.945C5.78448 60.401 6.13582 59.9817 6.60048 59.687C7.07648 59.3923 7.62615 59.245 8.24948 59.245C8.92948 59.245 9.48482 59.381 9.91548 59.653C10.3462 59.925 10.6635 60.3443 10.8675 60.911C11.1282 60.401 11.5078 59.9987 12.0065 59.704C12.5165 59.398 13.0888 59.245 13.7235 59.245ZM-76.3569 105.896H-74.9629V116.81H-68.8939V118H-76.3569V105.896ZM-64.2753 118.119C-65.08 118.119 -65.7883 117.938 -66.4003 117.575C-67.0123 117.212 -67.4883 116.697 -67.8283 116.028C-68.157 115.359 -68.3213 114.577 -68.3213 113.682C-68.3213 112.787 -68.157 112.005 -67.8283 111.336C-67.4883 110.667 -67.0123 110.152 -66.4003 109.789C-65.7883 109.426 -65.08 109.245 -64.2753 109.245C-63.4706 109.245 -62.7623 109.426 -62.1503 109.789C-61.5383 110.152 -61.068 110.667 -60.7393 111.336C-60.3993 112.005 -60.2293 112.787 -60.2293 113.682C-60.2293 114.577 -60.3993 115.359 -60.7393 116.028C-61.068 116.697 -61.5383 117.212 -62.1503 117.575C-62.7623 117.938 -63.4706 118.119 -64.2753 118.119ZM-64.2753 116.98C-63.4253 116.98 -62.7736 116.702 -62.3203 116.147C-61.867 115.58 -61.6403 114.759 -61.6403 113.682C-61.6403 112.639 -61.8726 111.835 -62.3373 111.268C-62.802 110.69 -63.448 110.401 -64.2753 110.401C-65.114 110.401 -65.7656 110.69 -66.2303 111.268C-66.695 111.835 -66.9273 112.639 -66.9273 113.682C-66.9273 114.759 -66.7006 115.58 -66.2473 116.147C-65.7826 116.702 -65.1253 116.98 -64.2753 116.98ZM-54.6362 109.245C-54.3529 109.245 -54.0922 109.279 -53.8542 109.347L-53.8882 110.605C-54.1489 110.514 -54.4492 110.469 -54.7892 110.469C-55.6166 110.469 -56.2342 110.73 -56.6422 111.251C-57.0389 111.761 -57.2372 112.384 -57.2372 113.121V118H-58.6142V111.846C-58.6142 110.962 -58.6596 110.163 -58.7502 109.449H-57.4412L-57.3052 111.03C-57.0899 110.452 -56.7442 110.01 -56.2682 109.704C-55.7922 109.398 -55.2482 109.245 -54.6362 109.245ZM-45.9956 113.682H-52.2686C-52.2572 114.77 -52.0079 115.592 -51.5206 116.147C-51.0219 116.702 -50.3022 116.98 -49.3616 116.98C-48.3642 116.98 -47.4462 116.646 -46.6076 115.977L-46.1486 116.98C-46.5226 117.331 -47.0042 117.609 -47.5936 117.813C-48.1716 118.017 -48.7666 118.119 -49.3786 118.119C-50.7159 118.119 -51.7642 117.728 -52.5236 116.946C-53.2829 116.153 -53.6626 115.07 -53.6626 113.699C-53.6626 112.826 -53.4926 112.056 -53.1526 111.387C-52.8126 110.707 -52.3366 110.18 -51.7246 109.806C-51.1126 109.432 -50.4156 109.245 -49.6336 109.245C-48.5002 109.245 -47.6106 109.619 -46.9646 110.367C-46.3186 111.104 -45.9956 112.124 -45.9956 113.427V113.682ZM-49.6166 110.316C-50.3306 110.316 -50.9142 110.531 -51.3676 110.962C-51.8096 111.393 -52.0929 111.999 -52.2176 112.781H-47.2366C-47.3046 111.976 -47.5426 111.364 -47.9506 110.945C-48.3472 110.526 -48.9026 110.316 -49.6166 110.316ZM-34.951 109.245C-33.0583 109.245 -32.112 110.373 -32.112 112.628V118H-33.489V112.696C-33.489 111.891 -33.6306 111.308 -33.914 110.945C-34.186 110.582 -34.6336 110.401 -35.257 110.401C-35.9823 110.401 -36.549 110.645 -36.957 111.132C-37.365 111.619 -37.569 112.282 -37.569 113.121V118H-38.946V112.696C-38.946 111.903 -39.0876 111.325 -39.371 110.962C-39.6543 110.588 -40.1076 110.401 -40.731 110.401C-41.4563 110.401 -42.0286 110.645 -42.448 111.132C-42.856 111.619 -43.06 112.282 -43.06 113.121V118H-44.437V111.846C-44.437 110.962 -44.4823 110.163 -44.573 109.449H-43.264L-43.128 110.945C-42.89 110.401 -42.5386 109.982 -42.074 109.687C-41.598 109.392 -41.0483 109.245 -40.425 109.245C-39.745 109.245 -39.1896 109.381 -38.759 109.653C-38.3283 109.925 -38.011 110.344 -37.807 110.911C-37.5463 110.401 -37.1666 109.999 -36.668 109.704C-36.158 109.398 -35.5856 109.245 -34.951 109.245ZM-26.1259 109.449H-24.7489V118H-26.1259V109.449ZM-24.5789 105.828V107.392H-26.2619V105.828H-24.5789ZM-18.3396 109.245C-17.5916 109.245 -16.9286 109.432 -16.3506 109.806C-15.7726 110.18 -15.3249 110.707 -15.0076 111.387C-14.6902 112.056 -14.5316 112.832 -14.5316 113.716C-14.5316 114.6 -14.6902 115.376 -15.0076 116.045C-15.3249 116.702 -15.7726 117.212 -16.3506 117.575C-16.9172 117.938 -17.5802 118.119 -18.3396 118.119C-19.0082 118.119 -19.5919 117.972 -20.0906 117.677C-20.5892 117.382 -20.9689 116.963 -21.2296 116.419V121.672H-22.6066V111.846C-22.6066 110.962 -22.6519 110.163 -22.7426 109.449H-21.4336L-21.2976 111.098C-21.0596 110.509 -20.6856 110.055 -20.1756 109.738C-19.6542 109.409 -19.0422 109.245 -18.3396 109.245ZM-18.5946 116.98C-17.7559 116.98 -17.1099 116.697 -16.6566 116.13C-16.1919 115.563 -15.9596 114.759 -15.9596 113.716C-15.9596 112.673 -16.1919 111.863 -16.6566 111.285C-17.1212 110.696 -17.7672 110.401 -18.5946 110.401C-19.4446 110.401 -20.0962 110.684 -20.5496 111.251C-21.0029 111.818 -21.2296 112.628 -21.2296 113.682C-21.2296 114.736 -21.0029 115.552 -20.5496 116.13C-20.0962 116.697 -19.4446 116.98 -18.5946 116.98ZM-10.0547 118.119C-11.494 118.119 -12.633 117.751 -13.4717 117.014L-13.0127 115.994C-12.548 116.357 -12.0777 116.617 -11.6017 116.776C-11.1257 116.935 -10.593 117.014 -10.0037 117.014C-9.35769 117.014 -8.87036 116.906 -8.54169 116.691C-8.20169 116.464 -8.03169 116.141 -8.03169 115.722C-8.03169 115.382 -8.14502 115.11 -8.37169 114.906C-8.59836 114.702 -8.97236 114.543 -9.49369 114.43L-10.9387 114.09C-11.6527 113.931 -12.208 113.648 -12.6047 113.24C-12.99 112.832 -13.1827 112.345 -13.1827 111.778C-13.1827 111.03 -12.8824 110.424 -12.2817 109.959C-11.681 109.483 -10.8877 109.245 -9.90169 109.245C-9.30102 109.245 -8.73436 109.341 -8.20169 109.534C-7.66902 109.727 -7.22136 110.004 -6.85869 110.367L-7.31769 111.37C-8.12236 110.701 -8.98369 110.367 -9.90169 110.367C-10.5137 110.367 -10.9897 110.486 -11.3297 110.724C-11.6584 110.951 -11.8227 111.274 -11.8227 111.693C-11.8227 112.044 -11.7207 112.322 -11.5167 112.526C-11.3014 112.73 -10.9614 112.889 -10.4967 113.002L-9.05169 113.359C-8.25836 113.54 -7.66902 113.824 -7.28369 114.209C-6.89836 114.583 -6.70569 115.076 -6.70569 115.688C-6.70569 116.425 -7.00602 117.014 -7.60669 117.456C-8.20736 117.898 -9.02336 118.119 -10.0547 118.119ZM2.11442 109.449V118H0.771424V116.521C0.499424 117.042 0.119758 117.439 -0.367576 117.711C-0.854909 117.983 -1.40458 118.119 -2.01658 118.119C-3.02524 118.119 -3.79024 117.836 -4.31158 117.269C-4.83291 116.702 -5.09358 115.864 -5.09358 114.753V109.449H-3.71658V114.719C-3.71658 115.49 -3.55791 116.056 -3.24058 116.419C-2.92324 116.782 -2.44158 116.963 -1.79558 116.963C-1.03624 116.963 -0.424242 116.719 0.040424 116.232C0.505091 115.733 0.737424 115.082 0.737424 114.277V109.449H2.11442ZM13.7235 109.245C15.6162 109.245 16.5625 110.373 16.5625 112.628V118H15.1855V112.696C15.1855 111.891 15.0438 111.308 14.7605 110.945C14.4885 110.582 14.0408 110.401 13.4175 110.401C12.6922 110.401 12.1255 110.645 11.7175 111.132C11.3095 111.619 11.1055 112.282 11.1055 113.121V118H9.72848V112.696C9.72848 111.903 9.58682 111.325 9.30348 110.962C9.02015 110.588 8.56682 110.401 7.94348 110.401C7.21815 110.401 6.64582 110.645 6.22648 111.132C5.81848 111.619 5.61448 112.282 5.61448 113.121V118H4.23748V111.846C4.23748 110.962 4.19215 110.163 4.10148 109.449H5.41048L5.54648 110.945C5.78448 110.401 6.13582 109.982 6.60048 109.687C7.07648 109.392 7.62615 109.245 8.24948 109.245C8.92948 109.245 9.48482 109.381 9.91548 109.653C10.3462 109.925 10.6635 110.344 10.8675 110.911C11.1282 110.401 11.5078 109.999 12.0065 109.704C12.5165 109.398 13.0888 109.245 13.7235 109.245Z" fill="#696871"/>
</g>
<rect x="-159.5" y="-180.5" width="285" height="453" rx="9.5" stroke="#CECECE"/>
<rect x="-177" y="-468" width="320" height="568" fill="black" fill-opacity="0.3"/>
<rect x="-86" y="-468" width="229" height="568" fill="#4A919E"/>
<path d="M18.944 2.09C18.742 1.2677 18.1022 0.616721 17.3277 0.411147C15.8797 0 10.1552 0 10.1552 0C10.1552 0 4.39708 0 2.94912 0.411147C2.17463 0.616721 1.53483 1.2677 1.33279 2.09C0.928711 3.52901 0.928711 6.61262 0.928711 6.61262C0.928711 6.61262 0.928711 9.66196 1.33279 11.1352C1.53483 11.9575 2.17463 12.5743 2.94912 12.7798C4.39708 13.1567 10.1552 13.1567 10.1552 13.1567C10.1552 13.1567 15.8797 13.1567 17.3277 12.7798C18.1022 12.5743 18.742 11.9575 18.944 11.1352C19.3481 9.66196 19.3481 6.61262 19.3481 6.61262C19.3481 6.61262 19.3481 3.52901 18.944 2.09ZM8.26953 9.38786V3.83738L13.0512 6.61262L8.26953 9.38786Z" fill="white"/>
</g>
<defs>
<clipPath id="clip0_529_3822">
<rect x="-177" y="-468" width="320" height="568" rx="20" fill="white"/>
</clipPath>
<clipPath id="clip1_529_3822">
<rect x="-160" y="-181" width="286" height="454" rx="10" fill="white"/>
</clipPath>
</defs>
</svg>
