<svg width="30" height="29" viewBox="0 0 30 29" fill="none" xmlns="http://www.w3.org/2000/svg">
<circle cx="15.0743" cy="14.2149" r="14.2149" fill="white" fill-opacity="0.4"/>
<path d="M23.0034 10.1737C22.8215 9.43338 22.2455 8.84726 21.5481 8.66217C20.2445 8.29199 15.0904 8.29199 15.0904 8.29199C15.0904 8.29199 9.90597 8.29199 8.60229 8.66217C7.90497 8.84726 7.32893 9.43338 7.14702 10.1737C6.7832 11.4694 6.7832 14.2457 6.7832 14.2457C6.7832 14.2457 6.7832 16.9912 7.14702 18.3177C7.32893 19.058 7.90497 19.6133 8.60229 19.7984C9.90597 20.1377 15.0904 20.1377 15.0904 20.1377C15.0904 20.1377 20.2445 20.1377 21.5481 19.7984C22.2455 19.6133 22.8215 19.058 23.0034 18.3177C23.3672 16.9912 23.3672 14.2457 23.3672 14.2457C23.3672 14.2457 23.3672 11.4694 23.0034 10.1737ZM13.3926 16.7444V11.747L17.6977 14.2457L13.3926 16.7444Z" fill="#4A919E"/>
</svg>
